<svg width="163" height="170" viewBox="0 0 163 170" fill="none" xmlns="http://www.w3.org/2000/svg">
<path d="M119.551 135.579C122.041 135.711 123.328 135.024 124.012 134.352C124.743 133.634 125.074 132.65 125.133 131.766C125.149 131.529 125.136 131.394 125.126 131.328C125.099 131.313 125.061 131.292 125.005 131.268C124.724 131.145 124.218 131.01 123.325 130.892C122.452 130.777 121.331 130.692 119.88 130.615C118.428 130.538 117.31 130.503 116.439 130.526C115.547 130.55 115.047 130.633 114.772 130.72C114.731 130.733 114.702 130.748 114.68 130.758C114.66 130.83 114.633 130.969 114.617 131.209C114.557 132.123 114.745 133.133 115.35 133.911C115.912 134.631 117.06 135.447 119.551 135.579Z" fill="#9CCAA3" stroke="black" stroke-width="4"/>
<path d="M52.1582 136.499C49.8403 136.622 48.5791 135.822 47.8155 134.879C46.968 133.833 46.5556 132.377 46.4688 131.065C46.4248 130.401 46.4912 130.119 46.5314 130.016C46.54 129.994 46.5381 129.956 46.7054 129.865C46.9416 129.738 47.399 129.582 48.268 129.448C49.1188 129.317 50.2231 129.227 51.6715 129.15C53.1205 129.073 54.2212 129.047 55.072 129.087C55.9416 129.129 56.3957 129.235 56.6265 129.331C56.7775 129.393 56.7735 129.42 56.7845 129.441C56.8397 129.546 56.9393 129.829 56.9843 130.508C57.0727 131.843 56.8725 133.333 56.1917 134.454C55.5842 135.454 54.4731 136.377 52.1582 136.499Z" fill="#9CCAA3" stroke="black" stroke-width="4"/>
<path d="M77.2871 167.617C75.5336 167.71 74.1678 166.676 73.0608 164.401C71.9496 162.116 71.3916 159.071 71.2193 156.469C71.0371 153.717 71.4198 153.036 71.7074 152.77C71.8777 152.613 72.2208 152.406 72.9888 152.23C73.7633 152.053 74.8068 151.942 76.244 151.866C77.6822 151.79 78.7248 151.79 79.5051 151.885C80.2778 151.978 80.6243 152.146 80.7962 152.274C81.0996 152.5 81.5507 153.131 81.7348 155.912C81.908 158.527 81.7799 161.61 81.0009 163.995C80.226 166.368 79.0307 167.524 77.2871 167.617Z" fill="#9CCAA3" stroke="black" stroke-width="4"/>
<path d="M92.5195 167.617C94.273 167.71 95.6388 166.676 96.7458 164.401C97.8571 162.116 98.415 159.071 98.5873 156.469C98.7696 153.717 98.3869 153.036 98.0993 152.77C97.9289 152.613 97.5858 152.406 96.8178 152.23C96.0433 152.053 94.9998 151.942 93.5626 151.866C92.1245 151.79 91.0818 151.79 90.3016 151.885C89.5288 151.978 89.1824 152.146 89.0105 152.274C88.7071 152.5 88.256 153.131 88.0718 155.912C87.8986 158.527 88.0267 161.61 88.8057 163.995C89.5806 166.368 90.7759 167.524 92.5195 167.617Z" fill="#9CCAA3" stroke="black" stroke-width="4"/>
<rect x="61" y="105" width="44" height="49" fill="white" stroke="black" stroke-width="4"/>
<path d="M43.8271 98.8916C49.4302 96.0404 57.7201 95.6994 64.918 96.1836C68.4603 96.4219 71.6341 96.8505 73.9219 97.2207C74.6443 97.3376 75.2768 97.4502 75.8037 97.5469C75.7487 98.0324 75.6845 98.6006 75.6133 99.2344C75.3736 101.366 75.0541 104.243 74.7344 107.217C74.1046 113.076 73.4464 119.559 73.4463 121.257C73.4463 122.925 74.0981 130.992 74.7305 138.466C75.0499 142.242 75.3689 145.92 75.6084 148.653C75.6787 149.455 75.7424 150.176 75.7969 150.794C68.7608 150.202 64.0406 150.235 56.8652 150.853C56.1267 147.587 55.7453 144.931 55.7275 142.247C55.7069 139.122 56.1774 135.861 57.2588 131.473L57.5781 130.178L56.5049 129.385C56.1293 129.108 55.7239 128.975 55.4795 128.907C55.1975 128.829 54.8976 128.775 54.6104 128.734C54.0338 128.654 53.3465 128.609 52.625 128.585C51.173 128.537 49.3985 128.569 47.7041 128.631C46.0017 128.693 44.3448 128.785 43.1162 128.861C42.9358 128.873 42.7645 128.884 42.6035 128.895C42.356 128.166 42.0329 127.181 41.6846 126.007C40.9034 123.373 39.995 119.822 39.46 116.104C38.9213 112.36 38.7821 108.584 39.4453 105.445C40.1031 102.333 41.4877 100.082 43.8271 98.8916Z" fill="#272727" stroke="black" stroke-width="4"/>
<path d="M127.173 98.8916C121.57 96.0404 113.28 95.6994 106.082 96.1836C102.54 96.4219 99.3659 96.8505 97.0781 97.2207C96.3557 97.3376 95.7232 97.4502 95.1963 97.5469C95.2513 98.0324 95.3155 98.6006 95.3867 99.2344C95.6264 101.366 95.9459 104.243 96.2656 107.217C96.8954 113.076 97.5536 119.559 97.5537 121.257C97.5537 122.925 96.9019 130.992 96.2695 138.466C95.9501 142.242 95.6311 145.92 95.3916 148.653C95.3213 149.455 95.2576 150.176 95.2031 150.794C102.239 150.202 106.959 150.235 114.135 150.853C114.873 147.587 115.255 144.931 115.272 142.247C115.293 139.122 114.823 135.861 113.741 131.473L113.422 130.178L114.495 129.385C114.871 129.108 115.276 128.975 115.521 128.907C115.803 128.829 116.102 128.775 116.39 128.734C116.966 128.654 117.653 128.609 118.375 128.585C119.827 128.537 121.601 128.569 123.296 128.631C124.998 128.693 126.655 128.785 127.884 128.861C128.064 128.873 128.235 128.884 128.396 128.895C128.644 128.166 128.967 127.181 129.315 126.007C130.097 123.373 131.005 119.822 131.54 116.104C132.079 112.36 132.218 108.584 131.555 105.445C130.897 102.333 129.512 100.082 127.173 98.8916Z" fill="#272727" stroke="black" stroke-width="4"/>
<path d="M123.794 5.13477C131.146 2.78226 137.999 1.43448 143.879 2.22852C149.613 3.00281 154.528 5.82272 158.169 12.1602C161.737 18.3709 161.873 27.197 158.911 37.29C155.965 47.3281 150.04 58.3011 141.995 68.4951C125.853 88.9481 101.603 105.762 76.6826 105.998C64.4001 106.114 52.6003 100.819 42.0684 92.5332C31.5415 84.2515 22.41 73.0781 15.5205 61.7197C8.62178 50.346 4.05643 38.927 2.54688 30.2129C1.7882 25.8331 1.83648 22.3317 2.58398 19.9062C3.29611 17.5958 4.56791 16.4035 6.43262 16.0576C17.0922 14.0812 29.7346 15.257 42.8584 16.7803C55.8431 18.2874 69.3066 20.1375 81.124 19.2568C87.2459 18.8006 94.3393 16.3704 101.572 13.5703C108.918 10.7267 116.44 7.48779 123.794 5.13477Z" fill="#9CCAA3" stroke="black" stroke-width="4"/>
<path d="M61 48.8394C66.657 48.8394 71.2581 42.04 73.5963 46.5381C75.9346 51.0361 67.6376 56.8941 61 56.9987C54.3624 57.1033 46.0654 51.0362 48.4037 46.5381C50.7419 42.04 55.343 48.8394 61 48.8394Z" fill="#5B5B5B"/>
<path d="M78.5 66.5596C81.7637 66.5596 84.4181 62.0267 85.7671 65.0254C87.1161 68.0241 82.3294 71.9294 78.5 71.9991C74.6706 72.0688 69.8839 68.0241 71.2329 65.0254C72.5819 62.0267 75.2363 66.5596 78.5 66.5596Z" fill="#C77C7C"/>
<path d="M94 48.8394C99.657 48.8394 104.258 42.04 106.596 46.5381C108.935 51.0361 100.638 56.8941 94 56.9987C87.3624 57.1033 79.0654 51.0362 81.4037 46.5381C83.7419 42.04 88.343 48.8394 94 48.8394Z" fill="#5B5B5B"/>
</svg>
