<svg width="163" height="108" viewBox="0 0 163 108" fill="none" xmlns="http://www.w3.org/2000/svg">
<path d="M124.251 6.56348C131.546 4.22941 138.137 2.96674 143.678 3.71484C148.963 4.4285 153.465 6.98461 156.868 12.9072C160.144 18.6083 160.381 26.9541 157.472 36.8682C154.591 46.6857 148.77 57.4893 140.817 67.5654C124.823 87.8313 100.956 104.268 76.6689 104.498C64.8361 104.61 53.3599 99.5069 42.9961 91.3535C32.6414 83.2073 23.6214 72.1841 16.8027 60.9424C9.96741 49.6732 5.49245 38.4311 4.02441 29.9561C3.28361 25.6792 3.37038 22.4489 4.01758 20.3486C4.60304 18.4489 5.50604 17.7549 6.70703 17.5322C17.11 15.6035 29.5302 16.7436 42.6855 18.2705C55.5975 19.7692 69.2388 21.6459 81.2354 20.752C87.6066 20.2771 94.8914 17.7646 102.113 14.9688C109.532 12.0968 116.953 8.89852 124.251 6.56348Z" fill="#9CCAA3" stroke="black" stroke-width="7"/>
<path d="M61 48.8394C66.657 48.8394 71.2581 42.04 73.5963 46.5381C75.9346 51.0361 67.6376 56.8941 61 56.9987C54.3624 57.1033 46.0654 51.0362 48.4037 46.5381C50.7419 42.04 55.343 48.8394 61 48.8394Z" fill="#5B5B5B"/>
<path d="M78.5 66.5596C81.7637 66.5596 84.4181 62.0267 85.7671 65.0254C87.1161 68.0241 82.3294 71.9294 78.5 71.9991C74.6706 72.0688 69.8839 68.0241 71.2329 65.0254C72.5819 62.0267 75.2363 66.5596 78.5 66.5596Z" fill="#C77C7C"/>
<path d="M94 48.8394C99.657 48.8394 104.258 42.04 106.596 46.5381C108.935 51.0361 100.638 56.8941 94 56.9987C87.3624 57.1033 79.0654 51.0362 81.4037 46.5381C83.7419 42.04 88.343 48.8394 94 48.8394Z" fill="#5B5B5B"/>
</svg>
