<svg width="154" height="175" viewBox="0 0 154 175" fill="none" xmlns="http://www.w3.org/2000/svg">
<path d="M119.171 152.708C120.563 152.787 121.766 151.919 122.791 149.656C123.798 147.432 124.304 144.467 124.46 141.934C124.627 139.238 124.269 138.576 124.036 138.345C123.915 138.225 123.651 138.042 122.992 137.88C122.321 137.715 121.401 137.609 120.107 137.535C118.811 137.461 117.893 137.463 117.218 137.551C116.556 137.636 116.291 137.786 116.172 137.881C115.925 138.079 115.506 138.693 115.338 141.415C115.182 143.959 115.298 146.962 116.004 149.285C116.722 151.646 117.79 152.63 119.171 152.708Z" fill="#FFEBEB" stroke="black" stroke-width="4"/>
<path d="M35.0584 151.286C33.6667 151.365 32.4639 150.496 31.4389 148.233C30.4313 146.009 29.9252 143.044 29.7691 140.511C29.6029 137.815 29.96 137.153 30.1935 136.922C30.3146 136.802 30.5788 136.619 31.2372 136.457C31.9086 136.292 32.8281 136.186 34.1228 136.112C35.4182 136.038 36.3364 136.04 37.012 136.128C37.6734 136.214 37.9386 136.363 38.0577 136.458C38.3048 136.656 38.7232 137.27 38.891 139.992C39.0479 142.536 38.9319 145.539 38.2257 147.862C37.5076 150.223 36.4396 151.207 35.0584 151.286Z" fill="#FFEBEB" stroke="black" stroke-width="4"/>
<path d="M58.0105 171.916C56.6189 171.996 55.4161 171.127 54.391 168.864C53.3835 166.64 52.8774 163.675 52.7212 161.142C52.555 158.446 52.9122 157.784 53.1456 157.553C53.2668 157.433 53.5309 157.25 54.1893 157.088C54.8608 156.923 55.7803 156.817 57.0749 156.743C58.3703 156.669 59.2886 156.671 59.9641 156.759C60.6255 156.844 60.8907 156.994 61.0099 157.089C61.2569 157.287 61.6754 157.901 61.8432 160.623C62.0001 163.167 61.8841 166.17 61.1778 168.493C60.4597 170.854 59.3918 171.838 58.0105 171.916Z" fill="#FFEBEB" stroke="black" stroke-width="4"/>
<path d="M93.2581 172.627C94.6497 172.706 95.8525 171.838 96.8775 169.575C97.8851 167.351 98.3912 164.386 98.5473 161.853C98.7136 159.157 98.3564 158.495 98.1229 158.264C98.0018 158.144 97.7376 157.961 97.0792 157.799C96.4078 157.634 95.4883 157.528 94.1936 157.454C92.8982 157.38 91.98 157.382 91.3044 157.469C90.643 157.555 90.3778 157.705 90.2587 157.8C90.0116 157.998 89.5932 158.612 89.4254 161.334C89.2685 163.878 89.3845 166.881 90.0907 169.204C90.8088 171.565 91.8768 172.549 93.2581 172.627Z" fill="#FFEBEB" stroke="black" stroke-width="4"/>
<rect x="47.9043" y="116.537" width="55.9712" height="47.933" fill="white" stroke="black" stroke-width="4"/>
<path d="M28.6143 110.085C33.714 107.333 41.2858 106.996 47.9053 107.468C51.1565 107.7 54.0699 108.117 56.1709 108.478C56.7847 108.583 57.3282 108.685 57.7891 108.773C57.7387 109.245 57.6803 109.796 57.6152 110.409C57.3945 112.491 57.1001 115.3 56.8057 118.205C56.2253 123.93 55.6191 130.258 55.6191 131.911C55.6193 133.538 56.2192 141.411 56.8018 148.712C57.096 152.4 57.3897 155.992 57.6104 158.662C57.6731 159.421 57.7301 160.106 57.7793 160.697C51.44 160.14 47.118 160.172 40.6514 160.756C39.981 157.598 39.6334 155.018 39.6172 152.411C39.5982 149.352 40.033 146.161 41.0293 141.873L41.3184 140.632L40.3145 139.846C39.9435 139.555 39.5411 139.417 39.3027 139.347C39.0283 139.265 38.7402 139.209 38.4688 139.169C37.9239 139.088 37.28 139.044 36.6113 139.021C35.2644 138.973 33.6223 139.005 32.0596 139.065C30.4888 139.126 28.9609 139.216 27.8281 139.291C27.7184 139.298 27.6119 139.306 27.5098 139.312C27.2852 138.609 26.9963 137.674 26.6865 136.566C25.9668 133.993 25.129 130.522 24.6357 126.887C24.1392 123.227 24.0102 119.531 24.623 116.455C25.2345 113.386 26.5176 111.216 28.6143 110.085Z" fill="#272727" stroke="black" stroke-width="4"/>
<path d="M125.386 110.085C120.286 107.333 112.714 106.996 106.095 107.468C102.843 107.7 99.9301 108.117 97.8291 108.478C97.2153 108.583 96.6718 108.685 96.2109 108.773C96.2613 109.245 96.3197 109.796 96.3848 110.409C96.6055 112.491 96.8999 115.3 97.1943 118.205C97.7747 123.93 98.3809 130.258 98.3809 131.911C98.3807 133.538 97.7808 141.411 97.1982 148.712C96.904 152.4 96.6103 155.992 96.3896 158.662C96.3269 159.421 96.2699 160.106 96.2207 160.697C102.56 160.14 106.882 160.172 113.349 160.756C114.019 157.598 114.367 155.018 114.383 152.411C114.402 149.352 113.967 146.161 112.971 141.873L112.682 140.632L113.686 139.846C114.056 139.555 114.459 139.417 114.697 139.347C114.972 139.265 115.26 139.209 115.531 139.169C116.076 139.088 116.72 139.044 117.389 139.021C118.736 138.973 120.378 139.005 121.94 139.065C123.511 139.126 125.039 139.216 126.172 139.291C126.282 139.298 126.388 139.306 126.49 139.312C126.715 138.609 127.004 137.674 127.313 136.566C128.033 133.993 128.871 130.522 129.364 126.887C129.861 123.227 129.99 119.531 129.377 116.455C128.766 113.386 127.482 111.216 125.386 110.085Z" fill="#272727" stroke="black" stroke-width="4"/>
<path d="M90.7666 2.03223C102.351 1.62194 114.932 5.13432 130.265 14.0752C137.524 18.3082 142.883 25.6971 146.475 34.9248C150.064 44.1449 151.829 55.0595 151.988 66.0869C152.147 77.1094 150.7 88.1561 147.932 97.6123C145.151 107.113 141.098 114.801 136.2 119.327C131.395 123.767 122.414 126.804 110.948 128.537C99.5891 130.255 86.1813 130.641 72.9141 130.088C59.6535 129.536 46.6 128.048 35.9648 126.047C30.6462 125.046 25.9603 123.922 22.1699 122.732C18.3348 121.529 15.5738 120.306 13.9873 119.17C7.21398 114.321 2.58226 104.199 2.05078 94.0508C1.52031 83.9215 5.08145 74.5794 13.6631 70.6113C18.4665 68.3903 21.9373 66.7758 24.457 65.5332C26.9513 64.3031 28.63 63.3825 29.7793 62.5439C31.0126 61.6441 31.7127 60.7835 32.1953 59.7012C32.4062 59.2281 32.5636 58.7367 32.7021 58.3066C32.8478 57.8548 32.9942 57.3985 33.2021 56.8604C33.524 56.0275 33.7223 54.9142 33.8926 53.7842C34.06 52.6731 34.2565 51.1189 34.4727 49.6328C34.9283 46.5003 35.6026 42.6827 36.9395 38.584C39.6014 30.4228 44.8994 21.1084 56.4385 14.0537C68.3182 6.79073 79.172 2.44295 90.7666 2.03223Z" fill="#FFEBEB" stroke="black" stroke-width="4"/>
<ellipse cx="97.7308" cy="78.2552" rx="6.66346" ry="6.4027" fill="#5B5B5B"/>
<path d="M58.1385 72.9705C58.5719 72.266 62.9055 72.6174 64.2059 72.9705C65.5063 73.3237 70.7067 76.8457 70.7067 78.2549C70.7067 79.664 65.0727 83.1879 64.2059 83.5392C63.3391 83.8905 58.5721 84.2447 58.1385 83.5392C57.7049 82.8337 65.0727 79.664 65.0727 78.2549C65.0727 76.8457 57.7051 73.6751 58.1385 72.9705Z" fill="#5B5B5B"/>
<path d="M79.5867 100.083C80.3811 100.964 81.7636 100.964 82.558 100.083L86.719 95.4664C87.8787 94.1797 86.9656 92.1274 85.2334 92.1274H76.9113C75.1791 92.1274 74.266 94.1797 75.4257 95.4664L79.5867 100.083Z" fill="#C77C7C"/>
</svg>
