<svg width="154" height="133" viewBox="0 0 154 133" fill="none" xmlns="http://www.w3.org/2000/svg">
<path d="M90.8203 3.53125C102.037 3.13405 114.336 6.52341 129.509 15.3711C136.383 19.3794 141.563 26.4402 145.077 35.4688C148.586 44.4838 150.331 55.2136 150.488 66.1084C150.645 76.9947 149.214 87.8915 146.492 97.1914C143.747 106.569 139.796 113.962 135.182 118.226C130.73 122.339 122.145 125.327 110.724 127.054C99.4894 128.752 86.184 129.139 72.9766 128.589C59.7805 128.039 46.7993 126.56 36.2422 124.573C30.9619 123.58 26.3366 122.468 22.6191 121.302C18.8234 120.11 16.2479 118.943 14.8604 117.95C8.56225 113.441 4.06414 103.811 3.54883 93.9727C3.03537 84.1683 6.48887 75.5808 14.292 71.9727C19.0909 69.7537 22.5801 68.1306 25.1201 66.8779C27.6158 65.6472 29.3998 64.6773 30.6641 63.7549C32.0749 62.7254 32.9604 61.6692 33.5654 60.3125C33.8148 59.7532 33.9956 59.1835 34.1299 58.7666C34.2765 58.3116 34.4112 57.8941 34.6016 57.4014C34.9912 56.3929 35.2081 55.1218 35.376 54.0078C35.5388 52.927 35.7523 51.2565 35.957 49.8486C36.4074 46.7523 37.0666 43.0303 38.3652 39.0488C40.9417 31.1497 46.0493 22.164 57.2207 15.334C68.9888 8.13923 79.586 3.92913 90.8203 3.53125Z" fill="#FFEBEB" stroke="black" stroke-width="7"/>
<ellipse cx="97.7308" cy="78.2552" rx="6.66346" ry="6.4027" fill="#5B5B5B"/>
<path d="M58.1385 72.9705C58.5719 72.266 62.9055 72.6174 64.2059 72.9705C65.5063 73.3237 70.7067 76.8457 70.7067 78.2549C70.7067 79.664 65.0727 83.1879 64.2059 83.5392C63.3391 83.8905 58.5721 84.2447 58.1385 83.5392C57.7049 82.8337 65.0727 79.664 65.0727 78.2549C65.0727 76.8457 57.7051 73.6751 58.1385 72.9705Z" fill="#5B5B5B"/>
<path d="M79.5867 100.083C80.3811 100.964 81.7636 100.964 82.558 100.083L86.719 95.4664C87.8787 94.1797 86.9656 92.1274 85.2334 92.1274H76.9113C75.1791 92.1274 74.266 94.1797 75.4257 95.4664L79.5867 100.083Z" fill="#C77C7C"/>
</svg>
