<svg width="189" height="131" viewBox="0 0 189 131" fill="none" xmlns="http://www.w3.org/2000/svg">
<path d="M173.893 64.7755C187.757 55.5021 187.29 39.5479 177.538 31.9665C173.312 28.6807 163.302 23.1523 153.617 18.7563C148.729 16.5377 143.763 14.5342 139.487 13.2108C137.353 12.5503 135.3 12.0308 133.463 11.753C131.722 11.4899 129.743 11.3721 128.002 11.8679C120.118 14.1134 115.087 18.0064 114.538 23.9589C114.041 29.3385 117.451 35.1464 122.121 40.7416C126.962 46.5408 135.861 54.685 145.215 60.3835C149.887 63.2301 154.892 65.6027 159.722 66.6748C164.586 67.7544 169.687 67.5882 173.893 64.7755Z" fill="#AFA093" stroke="black" stroke-width="7"/>
<path d="M15.1075 64.7755C1.24286 55.5021 1.71045 39.5479 11.4617 31.9665C15.688 28.6807 25.698 23.1523 35.3833 18.7563C40.2714 16.5377 45.2367 14.5342 49.5126 13.2108C51.6466 12.5503 53.6995 12.0308 55.5372 11.753C57.2779 11.4899 59.257 11.3721 60.9979 11.8679C68.8822 14.1134 73.9127 18.0064 74.4621 23.9589C74.9585 29.3385 71.5487 35.1464 66.8786 40.7416C62.0382 46.5408 53.139 54.685 43.7853 60.3835C39.1128 63.2301 34.1075 65.6027 29.2777 66.6748C24.414 67.7544 19.3128 67.5882 15.1075 64.7755Z" fill="#AFA093" stroke="black" stroke-width="7"/>
<path d="M93.3896 3.5C112.081 3.50004 128.851 14.2243 140.809 28.708C152.768 43.1938 160.358 61.9511 160.358 78.9688C160.358 96.3019 152.471 108.502 139.939 116.189C127.627 123.742 111.025 126.847 93.3896 126.847C75.7542 126.847 59.1514 123.743 46.8389 116.189C34.3079 108.502 26.4209 96.3018 26.4209 78.9688C26.421 61.9511 34.0115 43.1938 45.9707 28.708C57.9283 14.2244 74.6981 3.5 93.3896 3.5Z" fill="#AFA093" stroke="black" stroke-width="7"/>
<path d="M76.1611 64.1875C73.0719 64.1877 70.4092 66.2971 70.4092 69.0781C70.4093 71.859 73.072 73.9686 76.1611 73.9688C79.2504 73.9688 81.9139 71.8591 81.9141 69.0781C81.9141 66.297 79.2505 64.1875 76.1611 64.1875Z" fill="#5B5B5B" stroke="black"/>
<path d="M76.1611 64.1875C73.0719 64.1877 70.4092 66.2971 70.4092 69.0781C70.4093 71.859 73.072 73.9686 76.1611 73.9688C79.2504 73.9688 81.9139 71.8591 81.9141 69.0781C81.9141 66.297 79.2505 64.1875 76.1611 64.1875Z" fill="#5B5B5B" stroke="black"/>
<path d="M112.931 64.1875C109.841 64.1877 107.179 66.2971 107.179 69.0781C107.179 71.859 109.842 73.9686 112.931 73.9688C116.02 73.9688 118.683 71.8591 118.684 69.0781C118.684 66.297 116.02 64.1875 112.931 64.1875Z" fill="#5B5B5B" stroke="black"/>
<path d="M93.8691 122.719C95.4855 124.216 97.9823 124.216 99.5986 122.719C102.411 120.113 100.567 115.41 96.7334 115.41C92.9001 115.411 91.0572 120.113 93.8691 122.719Z" fill="#5B5B5B" stroke="black"/>
</svg>
