<svg width="189" height="180" viewBox="0 0 189 180" fill="none" xmlns="http://www.w3.org/2000/svg">
<path d="M147.905 160.056C149.936 160.157 151.416 159.027 152.572 156.808C153.751 154.543 154.344 151.521 154.527 148.934C154.72 146.213 154.322 145.557 154.005 145.284C153.798 145.105 153.394 144.884 152.545 144.702C151.694 144.52 150.56 144.409 149.02 144.333C147.48 144.257 146.347 144.256 145.49 144.353C144.634 144.449 144.224 144.626 144.012 144.774C143.679 145.006 143.21 145.612 143.015 148.364C142.831 150.965 142.968 154.026 143.794 156.39C144.602 158.701 145.884 159.956 147.905 160.056Z" fill="#AFA093" stroke="black" stroke-width="4"/>
<path d="M48.4598 158.593C46.4289 158.694 44.949 157.564 43.7937 155.345C42.6146 153.08 42.0213 150.058 41.8379 147.471C41.645 144.75 42.0428 144.094 42.3602 143.821C42.5677 143.642 42.9708 143.421 43.8204 143.239C44.6709 143.057 45.8057 142.946 47.3453 142.87C48.8855 142.794 50.018 142.793 50.8753 142.89C51.7314 142.986 52.1409 143.164 52.3528 143.311C52.6859 143.543 53.1551 144.149 53.3501 146.901C53.5345 149.502 53.3977 152.563 52.5712 154.927C51.7633 157.238 50.4812 158.493 48.4598 158.593Z" fill="#AFA093" stroke="black" stroke-width="4"/>
<path d="M87.8544 177.619C85.8234 177.719 84.3435 176.589 83.1883 174.371C82.0091 172.106 81.4158 169.084 81.2324 166.497C81.0395 163.775 81.4373 163.12 81.7547 162.846C81.9623 162.667 82.3653 162.446 83.215 162.264C84.0654 162.082 85.2002 161.972 86.7399 161.895C88.28 161.819 89.4125 161.818 90.2698 161.915C91.126 162.012 91.5354 162.189 91.7473 162.337C92.0804 162.569 92.5496 163.174 92.7447 165.927C92.929 168.528 92.7922 171.588 91.9658 173.953C91.1578 176.264 89.8757 177.518 87.8544 177.619Z" fill="#AFA093" stroke="black" stroke-width="4"/>
<path d="M104.134 177.619C106.165 177.719 107.645 176.589 108.8 174.371C109.979 172.106 110.572 169.084 110.756 166.497C110.949 163.775 110.551 163.12 110.234 162.846C110.026 162.667 109.623 162.446 108.773 162.264C107.923 162.082 106.788 161.972 105.248 161.895C103.708 161.819 102.576 161.818 101.718 161.915C100.862 162.012 100.453 162.189 100.241 162.337C99.9079 162.569 99.4387 163.174 99.2436 165.927C99.0592 168.528 99.1961 171.588 100.023 173.953C100.83 176.264 102.113 177.518 104.134 177.619Z" fill="#AFA093" stroke="black" stroke-width="4"/>
<rect x="63.2783" y="119.81" width="66.9094" height="49.4169" fill="white" stroke="black" stroke-width="4"/>
<path d="M40.5625 113.23C46.7374 110.332 55.8406 109.994 63.6895 110.481C67.5594 110.722 71.0251 111.154 73.5234 111.527C74.3661 111.653 75.0972 111.774 75.6953 111.876C75.6363 112.356 75.568 112.916 75.4922 113.538C75.2312 115.68 74.8833 118.57 74.5352 121.558C74.1871 124.544 73.8383 127.636 73.5762 130.18C73.32 132.667 73.1309 134.769 73.1309 135.679C73.1309 137.364 73.8422 145.477 74.5303 152.979C74.8782 156.773 75.2255 160.469 75.4863 163.215C75.5633 164.025 75.6328 164.753 75.6924 165.376C67.8705 164.761 62.7058 164.795 54.7285 165.435C53.9164 162.133 53.4997 159.46 53.4805 156.764C53.4582 153.643 53.9685 150.379 55.1445 145.977L55.5098 144.606L54.3379 143.808C53.9593 143.55 53.552 143.428 53.3018 143.363C53.0124 143.289 52.7011 143.236 52.3965 143.196C51.7852 143.117 51.0501 143.074 50.2695 143.05C48.6998 143.002 46.7762 143.034 44.9336 143.096C43.0839 143.158 41.2833 143.25 39.9473 143.327C39.6802 143.343 39.4312 143.358 39.2041 143.372C38.9319 142.636 38.5737 141.624 38.1836 140.41C37.3339 137.767 36.3459 134.206 35.7646 130.479C35.1793 126.726 35.0304 122.955 35.7471 119.826C36.4519 116.749 37.9421 114.461 40.5625 113.23Z" fill="#272727" stroke="black" stroke-width="4"/>
<path d="M155.532 113.23C149.357 110.332 140.254 109.994 132.405 110.481C128.535 110.722 125.07 111.154 122.571 111.527C121.729 111.653 120.998 111.774 120.399 111.876C120.458 112.356 120.527 112.916 120.603 113.538C120.864 115.68 121.211 118.57 121.56 121.558C121.908 124.544 122.256 127.636 122.519 130.18C122.775 132.667 122.964 134.769 122.964 135.679C122.964 137.364 122.253 145.477 121.564 152.979C121.217 156.773 120.869 160.469 120.608 163.215C120.531 164.025 120.462 164.753 120.402 165.376C128.224 164.761 133.389 164.795 141.366 165.435C142.178 162.133 142.595 159.46 142.614 156.764C142.637 153.643 142.126 150.379 140.95 145.977L140.585 144.606L141.757 143.808C142.135 143.55 142.543 143.428 142.793 143.363C143.082 143.289 143.394 143.236 143.698 143.196C144.31 143.117 145.045 143.074 145.825 143.05C147.395 143.002 149.318 143.034 151.161 143.096C153.011 143.158 154.811 143.25 156.147 143.327C156.414 143.343 156.664 143.358 156.891 143.372C157.163 142.636 157.521 141.624 157.911 140.41C158.761 137.767 159.749 134.206 160.33 130.479C160.915 126.726 161.064 122.955 160.348 119.826C159.643 116.749 158.153 114.461 155.532 113.23Z" fill="#272727" stroke="black" stroke-width="4"/>
<path d="M170.367 59.5247C181.677 51.9601 180.403 39.943 173.847 34.8457C170.198 32.0085 160.727 26.7195 151.149 22.3722C146.386 20.2103 141.686 18.3233 137.762 17.109C135.799 16.5012 134.08 16.0783 132.676 15.866C131.217 15.6454 130.33 15.6896 129.887 15.8157C122.944 17.7929 120.562 20.5677 120.289 23.5178C119.987 26.7955 122.123 31.1811 126.692 36.6554C131.164 42.0131 139.586 49.726 148.342 55.0605C152.722 57.7292 157.062 59.7248 160.94 60.5857C164.799 61.4423 167.962 61.1332 170.367 59.5247Z" fill="#AFA093" stroke="black" stroke-width="4"/>
<path d="M18.6318 59.5247C7.32213 51.9601 8.59585 39.943 15.152 34.8457C18.8014 32.0085 28.2721 26.7195 37.8502 22.3722C42.6133 20.2103 47.3132 18.3233 51.2365 17.109C53.2004 16.5012 54.9186 16.0783 56.3229 15.866C57.7821 15.6454 58.6691 15.6896 59.1122 15.8157C66.0548 17.7929 68.4375 20.5677 68.7097 23.5178C69.0122 26.7955 66.8759 31.1811 62.3068 36.6554C57.8349 42.0131 49.4133 49.726 40.657 55.0605C36.2766 57.7292 31.9375 59.7248 28.0589 60.5857C24.1998 61.4423 21.0368 61.1332 18.6318 59.5247Z" fill="#AFA093" stroke="black" stroke-width="4"/>
<path d="M94.1084 7.85352C110.635 7.85368 125.986 17.3774 137.285 31.0635C148.583 44.7486 155.576 62.3041 155.576 77.8232C155.576 93.1618 148.753 103.624 137.782 110.354C126.686 117.161 111.239 120.2 94.1084 120.2C76.9776 120.2 61.5298 117.161 50.4336 110.354C39.4625 103.624 32.6398 93.1618 32.6396 77.8232C32.6396 62.3041 39.6326 44.7486 50.9307 31.0635C62.2297 17.3772 77.5812 7.85352 94.1084 7.85352Z" fill="#AFA093" stroke="black" stroke-width="4"/>
<path d="M76.1602 65.6611C74.0133 65.6613 72.9082 67.0525 72.9082 68.0518C72.9083 69.051 74.0134 70.4422 76.1602 70.4424C78.3072 70.4424 79.4129 69.0511 79.4131 68.0518C79.4131 67.0524 78.3073 65.6611 76.1602 65.6611Z" fill="#5B5B5B" stroke="black" stroke-width="4"/>
<ellipse cx="5.25255" cy="4.39043" rx="5.25255" ry="4.39043" transform="matrix(-1 0 0 1 81.4131 63.6611)" fill="#5B5B5B"/>
<ellipse cx="5.25255" cy="4.39043" rx="5.25255" ry="4.39043" transform="matrix(-1 0 0 1 118.183 63.6611)" fill="#5B5B5B"/>
<path d="M94.2085 121.323C95.6333 122.643 97.8344 122.643 99.2591 121.323V121.323C101.738 119.027 100.113 114.882 96.7338 114.882V114.882C93.3549 114.882 91.73 119.027 94.2085 121.323V121.323Z" fill="#5B5B5B"/>
</svg>
