<svg width="166" height="162" viewBox="0 0 166 162" fill="none" xmlns="http://www.w3.org/2000/svg">
<path d="M157.945 104.209C114.949 101.591 42.6899 94.7906 10.8644 104.209C-4.85924 27.6421 28.8763 10.4336 84.4048 7.27168C139.933 4.10975 154.37 27.859 157.945 104.209Z" fill="#C1D5EF"/>
<path d="M108.813 154.145C89.5324 154.846 83.4356 143.086 82.5826 96.0676H135.044C133.983 138.962 128.814 152.946 108.813 154.145Z" fill="#C1D5EF"/>
<path d="M35.95 141.055C16.6691 141.756 10.5722 129.996 9.71922 82.9777H62.1808C61.1192 125.872 55.9503 139.856 35.95 141.055Z" fill="#C1D5EF"/>
<path d="M73.1077 128.633C60.9641 128.633 60.2661 119.753 59.9949 96.0676H83.8497C85.7566 121.26 82.8798 127.314 73.1077 128.633Z" fill="#C1D5EF"/>
<path d="M140.63 141.084C121.961 141.084 120.888 129.07 120.471 97.0255H157.144C160.075 131.109 155.653 139.3 140.63 141.084Z" fill="#C1D5EF"/>
<path d="M42.3932 68.3682C43.6552 62.4751 54.3988 66.206 54.2685 65.9093C66.1367 66.5155 60.2573 43.8811 72.4766 49.618C79.1587 52.607 71.9546 72.7912 59.1536 74.4801C46.3527 76.169 41.1313 74.2613 42.3932 68.3682Z" fill="#5B5B5B"/>
<path d="M126.013 57.7693C122.888 52.5769 113.927 59.4544 113.954 59.1327C102.904 63.3987 101.066 40.119 91.3636 49.3566C86.0096 54.2677 99.4455 71.1558 112.13 68.7748C124.815 66.3938 129.139 62.9618 126.013 57.7693Z" fill="#5B5B5B"/>
<path d="M94.8414 98.7165C99.0515 98.7165 107.534 91.9312 108.277 85.5031C109.02 79.0749 106.357 79.1642 94.8414 79.1642C83.3254 79.1642 81.297 79.5213 81.4059 85.5031C81.5149 91.4848 90.6313 98.7165 94.8414 98.7165Z" fill="#C77C7C"/>
<path d="M84.2061 3.77734C112.388 2.17264 131.431 7.32554 143.485 23.8613C155.178 39.9015 159.658 65.9567 161.441 104.045L161.624 107.939L161.367 107.923C161.814 118.889 161.128 126.829 158.868 132.469C157.316 136.341 154.997 139.219 151.815 141.208C148.717 143.145 145.049 144.084 141.043 144.56L140.837 144.584H140.63C137.317 144.584 134.32 144.233 131.661 143.393C129.55 147.768 126.773 151.154 123.105 153.533C119.126 156.115 114.405 157.316 109.022 157.639L108.981 157.642L108.94 157.643C103.796 157.83 99.113 157.208 95.0674 155.074C90.9519 152.903 87.8802 149.373 85.6113 144.472C83.7676 140.489 82.3981 135.462 81.3965 129.24C81.3323 129.288 81.2695 129.337 81.2041 129.384C78.9508 130.985 76.3165 131.732 73.5762 132.102L73.3428 132.133H73.1074C69.6796 132.133 66.5796 131.511 64.0127 129.774C62.5623 128.793 61.4222 127.55 60.5195 126.112C60.1617 127.14 59.7818 128.119 59.376 129.051C57.203 134.038 54.2525 137.842 50.2422 140.443C46.2628 143.025 41.5418 144.226 36.1592 144.549L36.1182 144.552L36.0771 144.553C30.9332 144.74 26.2497 144.118 22.2041 141.984C18.0885 139.814 15.017 136.282 12.748 131.381C9.75321 124.911 8.00623 115.689 7.0625 103.06C-0.359968 65.4709 4.00039 41.1002 18.3643 25.8164C32.7884 10.4686 56.3832 5.36164 84.2061 3.77734Z" stroke="black" stroke-width="7"/>
</svg>
