<svg width="156" height="190" viewBox="0 0 156 190" fill="none" xmlns="http://www.w3.org/2000/svg">
<path d="M80.1195 139.024C80.1195 139.024 79.9846 182.003 76.5134 184.982C73.0423 187.96 61.2369 187.109 57.6469 185.833C54.0568 184.556 53.0329 181.577 55.3398 178.599C57.6466 175.62 63.3495 179.875 67.713 177.322C72.0765 174.769 67.713 139.024 67.713 139.024H80.1195Z" fill="#C1D5EF"/>
<path d="M89.7285 139.024C89.7285 139.024 89.8634 182.003 93.3346 184.982C96.8057 187.96 108.611 187.109 112.201 185.833C115.791 184.556 116.815 181.577 114.508 178.599C112.201 175.62 106.498 179.875 102.135 177.322C97.7715 174.769 102.135 139.024 102.135 139.024H89.7285Z" fill="#C1D5EF"/>
<path d="M51.5097 84.8339H115.338V159.133H51.5097V84.8339Z" fill="white"/>
<path d="M115.436 130.683C115.565 133.549 119.211 135.535 119.063 135.709C116.905 147.815 113.767 160.696 123.401 159.353C128.641 158.719 135.361 132.878 126.738 129.064C118.115 125.25 115.307 127.817 115.436 130.683Z" fill="#9A9A9A"/>
<path d="M54.0304 128.55C53.9013 131.416 50.256 133.402 50.4037 133.576C52.5613 145.682 55.6997 158.563 46.0656 157.22C40.8256 156.586 34.1054 130.745 42.7284 126.931C51.3513 123.117 54.1595 125.684 54.0304 128.55Z" fill="#9A9A9A"/>
<path d="M108.773 107.224C108.773 107.224 110.539 127.488 110.539 130.332C110.539 133.176 108.773 159.305 108.773 159.305C114.922 158.526 118.308 158.547 124.457 159.305C125.861 151.766 125.983 147.397 124.457 139.219C125.368 138.331 134.2 139.219 134.2 139.219C134.2 139.219 141.496 113.978 133.028 108.29C124.561 102.602 108.773 107.224 108.773 107.224Z" fill="#272727"/>
<path d="M62.3509 107.224C62.3509 107.224 60.5849 127.488 60.5849 130.332C60.5849 133.176 62.3509 159.305 62.3509 159.305C56.2019 158.526 52.8161 158.547 46.6672 159.305C45.2629 151.766 45.1407 147.397 46.6673 139.219C45.7557 138.331 36.9234 139.219 36.9234 139.219C36.9234 139.219 29.6282 113.978 38.0957 108.29C46.5633 102.602 62.3509 107.224 62.3509 107.224Z" fill="#272727"/>
<path d="M153.949 99.2139C110.953 96.5957 38.6938 89.7955 6.86831 99.2139C-8.85533 22.647 24.8802 5.43849 80.4087 2.27656C135.937 -0.885363 150.374 22.8639 153.949 99.2139Z" fill="#C1D5EF"/>
<path d="M104.817 149.15C85.5363 149.851 79.4395 138.09 78.5865 91.0725H131.048C129.986 133.967 124.818 147.951 104.817 149.15Z" fill="#C1D5EF"/>
<path d="M31.9539 136.06C12.673 136.761 6.57615 125.001 5.72312 77.9826H58.1847C57.1231 120.877 51.9542 134.861 31.9539 136.06Z" fill="#C1D5EF"/>
<path d="M69.1116 123.638C56.968 123.638 56.27 114.757 55.9988 91.0725H79.8537C81.7605 116.265 78.8838 122.319 69.1116 123.638Z" fill="#C1D5EF"/>
<path d="M136.634 136.089C117.965 136.089 116.892 124.075 116.475 92.0303H153.148C156.079 126.114 151.657 134.305 136.634 136.089Z" fill="#C1D5EF"/>
<path d="M38.3971 63.3731C39.6591 57.48 50.4027 61.2109 50.2724 60.9142C62.1406 61.5204 56.2612 38.886 68.4805 44.6229C75.1626 47.6119 67.9585 67.7961 55.1576 69.485C42.3566 71.1739 37.1352 69.2662 38.3971 63.3731Z" fill="#5B5B5B"/>
<path d="M122.017 52.7742C118.892 47.5817 109.931 54.4593 109.958 54.1376C98.9083 58.4035 97.0697 35.1239 87.3675 44.3615C82.0135 49.2726 95.4494 66.1607 108.134 63.7797C120.819 61.3987 125.142 57.9667 122.017 52.7742Z" fill="#5B5B5B"/>
<path d="M90.8453 93.7214C95.0554 93.7214 103.538 86.9361 104.281 80.508C105.024 74.0798 102.361 74.1691 90.8453 74.1691C79.3293 74.1691 77.3009 74.5262 77.4098 80.508C77.5188 86.4897 86.6353 93.7214 90.8453 93.7214Z" fill="#C77C7C"/>
<path d="M68.4988 2.54544C4.24351 12.9288 -10.3596 43.4571 11.4988 124.045M68.4989 2.66756C126.499 -0.954558 144.999 8.04544 152.499 85.0455M11.5028 123.971C19.0351 144.126 55.9987 140.545 55.9987 106.045M125.499 133.545C148.999 143.545 157.499 124.045 152.499 84.5454M78.8904 113.125C82.3455 138.191 86.1251 146.469 96.9988 148.545C112.301 149.723 118.979 146.985 125.89 133.125M56.0682 106.568C56.4988 122.045 64.9988 123.545 64.9988 123.545C64.9988 123.545 76.9988 124.545 78.9988 114.545M35.9839 135.924L36.9839 139.924M134.014 135.924L133.014 139.924M36.4988 139.545C40.8764 138.856 43.1134 138.803 46.4988 139.545M123.499 139.583C127.876 138.893 130.113 138.84 133.499 139.583M38.4207 138.657C39.7874 151.446 41.4243 155.937 46.4207 157.657M130.499 139.045C129.132 151.835 127.999 155.545 123.499 158.545M45.9916 156.96L46.3314 158.931M108.499 159.045C114.399 158.104 117.925 158.089 124.499 159.045M45.9988 159.045C51.8987 158.104 55.425 158.089 61.9988 159.045M61.4998 121.019C58.9218 124.821 59.0815 135.334 61.9988 159.545M61.4988 159.545H108.499M108.997 148.087L107.997 160.087M79.5059 159.546C78.607 185.625 78.9988 189.545 57.9993 186.045C55.3509 184.684 54.4988 184.045 53.9996 182.046C53.5004 180.046 54.0004 178.139 56.4996 177.842C58.9988 177.545 61.4669 178.388 64.9996 178.546C66.1171 178.539 67.4988 178.045 67.9997 176.546C68.5006 175.046 69.1397 166.404 68.9993 159.546M89.2672 159.045C90.1661 185.125 89.7742 189.045 110.774 185.545M100.067 159.132C99.6917 165.981 100.035 174.64 100.484 176.156C100.933 177.672 102.297 178.212 103.414 178.257C106.95 178.221 109.445 177.463 111.933 177.846C114.42 178.228 115.641 180.748 115.074 182.73C114.506 184.711 113.074 184.73 110.074 185.73" stroke="black" stroke-width="4"/>
</svg>
