<svg width="184" height="181" viewBox="0 0 184 181" fill="none" xmlns="http://www.w3.org/2000/svg">
<path d="M123.711 29.4483C134.567 32.7718 144.079 37.7624 149.978 44.1975C161.289 56.5388 166.848 74.3366 166.814 90.4099C166.78 106.296 161.207 121.857 148.576 128.214C125.981 139.587 98.4665 142.158 50.871 141.519C38.5393 141.353 29.3276 138.661 22.9681 133.549C16.522 128.367 13.4981 121.1 12.7629 112.89C12.0353 104.763 13.5213 95.5297 16.2189 85.9327C18.9261 76.3014 22.9182 66.0807 27.3816 55.9108C37.0933 33.7822 62.8631 25.1521 87.6058 24.61C100.131 24.3356 112.78 26.102 123.711 29.4483Z" fill="#D9D9D9" stroke="black" stroke-width="7"/>
<path d="M95 78.5C99.5254 78.5 103.692 79.681 106.773 81.6689C109.839 83.6469 112 86.5578 112 90C112 93.4422 109.839 96.3531 106.773 98.3311C103.692 100.319 99.5254 101.5 95 101.5C90.4746 101.5 86.3079 100.319 83.2266 98.3311C80.1608 96.3531 78 93.4422 78 90C78 89.9511 78.0011 89.9022 78.002 89.8535C77.3301 89.6654 76.4633 89.5 75.5 89.5C74.7594 89.5 74.0759 89.5978 73.4941 89.7285C73.4971 89.8187 73.5 89.9091 73.5 90C73.5 93.4422 71.3392 96.3531 68.2734 98.3311C65.1921 100.319 61.0254 101.5 56.5 101.5C51.9746 101.5 47.8079 100.319 44.7266 98.3311C41.6608 96.3531 39.5 93.4422 39.5 90C39.5 86.5578 41.6608 83.6469 44.7266 81.6689C47.8079 79.681 51.9746 78.5 56.5 78.5C61.0254 78.5 65.1921 79.681 68.2734 81.6689C70.3342 82.9986 71.9852 84.75 72.8467 86.8008C73.6069 86.6306 74.509 86.5 75.5 86.5C76.696 86.5 77.7627 86.6888 78.6064 86.9102C79.4545 84.812 81.129 83.0223 83.2266 81.6689C86.3079 79.681 90.4746 78.5 95 78.5Z" stroke="black" stroke-width="3"/>
<path d="M73.5354 116C78.4627 116 88.9132 107.602 86.6952 104.765C84.4773 101.927 78.6613 109.872 73.5354 109.872C68.4095 109.872 62.8892 101.474 60.3756 104.765C57.8619 108.056 68.6081 116 73.5354 116Z" fill="#C77C7C"/>
<path d="M48.0315 74C52.4113 74 61.7006 82.3981 59.7291 85.2353C57.7576 88.0725 52.5878 80.1284 48.0315 80.1284C43.4751 80.1284 38.5682 88.5265 36.3338 85.2353C34.0995 81.9442 43.6517 74 48.0315 74Z" fill="#5B5B5B"/>
<path d="M102.969 74C98.5887 74 89.2994 82.3981 91.2709 85.2353C93.2424 88.0725 98.4122 80.1284 102.969 80.1284C107.525 80.1284 112.432 88.5265 114.666 85.2353C116.901 81.9442 107.348 74 102.969 74Z" fill="#5B5B5B"/>
</svg>
