<svg width="184" height="194" viewBox="0 0 184 194" fill="none" xmlns="http://www.w3.org/2000/svg">
<path d="M45.499 184C53.4157 184 54.999 158 54.999 158H35.999C35.999 158 37.5824 184 45.499 184Z" fill="#D9D9D9"/>
<path d="M122.499 184C130.416 184 131.999 158 131.999 158H112.999C112.999 158 114.582 184 122.499 184Z" fill="#D9D9D9"/>
<path d="M70.499 194C78.4157 194 79.999 168 79.999 168H60.999C60.999 168 62.5824 194 70.499 194Z" fill="#D9D9D9"/>
<path d="M93.499 194C101.416 194 102.999 168 102.999 168H83.999C83.999 168 85.5824 194 93.499 194Z" fill="#D9D9D9"/>
<rect x="50.999" y="136" width="58" height="41" fill="white"/>
<path d="M92.999 137.217C92.999 137.217 95.8022 151.139 95.8022 153.093C95.8022 155.047 92.999 173 92.999 173C102.76 172.465 108.134 172.479 117.895 173C120.124 167.821 120.318 164.818 117.895 159.2C119.342 158.589 133.362 159.2 133.362 159.2C133.362 159.2 144.943 141.858 131.501 137.949C118.06 134.041 92.999 137.217 92.999 137.217Z" fill="#272727"/>
<path d="M68.999 137.217C68.999 137.217 66.1958 151.139 66.1958 153.093C66.1958 155.047 68.999 173 68.999 173C59.2383 172.465 53.8637 172.479 44.1029 173C41.8739 167.821 41.6798 164.818 44.103 159.2C42.656 158.589 28.6357 159.2 28.6357 159.2C28.6357 159.2 17.0555 141.858 30.4967 137.949C43.938 134.041 68.999 137.217 68.999 137.217Z" fill="#272727"/>
<path d="M147.397 46.5628C168.618 69.7157 168.752 114.14 147.001 125.087C125.25 136.035 98.5309 138.658 50.9169 138.019C3.30295 137.38 12.8565 97.7144 30.586 57.3173C48.3154 16.9201 126.175 23.41 147.397 46.5628Z" fill="#D9D9D9"/>
<path d="M70.999 89C70.999 89 72.9276 88 75.499 88C78.0705 88 79.999 89 79.999 89M71.999 90C71.999 95.5228 65.0594 100 56.499 100C47.9386 100 40.999 95.5228 40.999 90C40.999 84.4772 47.9386 80 56.499 80C65.0594 80 71.999 84.4772 71.999 90ZM110.499 90C110.499 95.5228 103.559 100 94.999 100C86.4386 100 79.499 95.5228 79.499 90C79.499 84.4772 86.4386 80 94.999 80C103.559 80 110.499 84.4772 110.499 90Z" stroke="black" stroke-width="4"/>
<path d="M73.5344 116C78.4617 116 88.9122 107.602 86.6943 104.765C84.4763 101.927 78.6604 109.872 73.5344 109.872C68.4085 109.872 62.8883 101.474 60.3746 104.765C57.8609 108.056 68.6072 116 73.5344 116Z" fill="#C77C7C"/>
<path d="M48.0305 74C52.4103 74 61.6996 82.3981 59.7281 85.2353C57.7566 88.0725 52.5869 80.1284 48.0305 80.1284C43.4741 80.1284 38.5672 88.5265 36.3329 85.2353C34.0985 81.9442 43.6507 74 48.0305 74Z" fill="#5B5B5B"/>
<path d="M102.968 74C98.5878 74 89.2984 82.3981 91.2699 85.2353C93.2414 88.0725 98.4112 80.1284 102.968 80.1284C107.524 80.1284 112.431 88.5265 114.665 85.2353C116.9 81.9442 107.347 74 102.968 74Z" fill="#5B5B5B"/>
<path d="M45.5 182C46.2571 182 47.336 181.36 48.5479 179.019C49.6862 176.819 50.5822 173.776 51.2627 170.583C51.9369 167.42 52.3737 164.24 52.6416 161.841C52.7181 161.155 52.7788 160.535 52.8291 160H38.1709C38.2212 160.535 38.2819 161.155 38.3584 161.841C38.6263 164.24 39.0631 167.42 39.7373 170.583C40.4178 173.776 41.3138 176.819 42.4521 179.019C43.664 181.36 44.7429 182 45.5 182Z" stroke="black" stroke-width="4"/>
<path d="M122.5 182C123.257 182 124.336 181.36 125.548 179.019C126.686 176.819 127.582 173.776 128.263 170.583C128.937 167.42 129.374 164.24 129.642 161.841C129.718 161.155 129.779 160.535 129.829 160H115.171C115.221 160.535 115.282 161.155 115.358 161.841C115.626 164.24 116.063 167.42 116.737 170.583C117.418 173.776 118.314 176.819 119.452 179.019C120.664 181.36 121.743 182 122.5 182Z" stroke="black" stroke-width="4"/>
<path d="M70 192C70.96 192 71.9319 191.452 72.9385 190.031C73.9461 188.609 74.7614 186.604 75.3926 184.44C76.0157 182.304 76.421 180.147 76.6709 178.511C76.6979 178.334 76.7208 178.163 76.7441 178H63.2559C63.2792 178.163 63.3021 178.334 63.3291 178.511C63.579 180.147 63.9843 182.304 64.6074 184.44C65.2386 186.604 66.0539 188.609 67.0615 190.031C68.0681 191.452 69.04 192 70 192Z" stroke="black" stroke-width="4"/>
<path d="M94.5 192C95.3027 192 96.1906 191.516 97.1543 190.075C98.108 188.65 98.8808 186.639 99.4785 184.469C100.068 182.327 100.452 180.166 100.688 178.527C100.715 178.345 100.737 178.168 100.76 178H88.2402C88.2629 178.168 88.2852 178.345 88.3115 178.527C88.548 180.166 88.9316 182.327 89.5215 184.469C90.1192 186.639 90.892 188.65 91.8457 190.075C92.8094 191.516 93.6973 192 94.5 192Z" stroke="black" stroke-width="4"/>
<rect x="53" y="138" width="54" height="37" stroke="black" stroke-width="4"/>
<path d="M130.944 139.87C124.561 138.014 115.221 137.811 107.287 138.116C103.359 138.267 99.843 138.539 97.3096 138.773C96.5822 138.841 95.9365 138.906 95.3857 138.963C95.3906 138.987 95.3955 139.012 95.4004 139.037C95.6638 140.376 96.0154 142.183 96.3672 144.053C96.7185 145.92 97.0717 147.859 97.3379 149.46C97.5889 150.969 97.8037 152.4 97.8037 153.094C97.8037 153.752 97.6003 155.412 97.3477 157.294C97.0831 159.265 96.7307 161.703 96.3799 164.072C96.0288 166.443 95.6782 168.752 95.415 170.468C95.3936 170.608 95.3728 170.744 95.3525 170.876C103.252 170.493 108.441 170.519 116.579 170.929C117.29 169.081 117.624 167.645 117.641 166.241C117.66 164.535 117.216 162.674 116.06 159.992L115.261 158.141L117.119 157.357C117.441 157.222 117.777 157.158 117.993 157.124C118.246 157.084 118.527 157.054 118.816 157.031C119.397 156.985 120.11 156.957 120.886 156.942C122.443 156.913 124.362 156.933 126.214 156.972C128.07 157.01 129.879 157.067 131.222 157.115C131.615 157.129 131.97 157.143 132.273 157.154C132.527 156.725 132.846 156.166 133.188 155.508C134.025 153.894 134.979 151.757 135.534 149.552C136.098 147.313 136.191 145.242 135.588 143.612C135.035 142.116 133.787 140.697 130.944 139.87Z" stroke="black" stroke-width="4"/>
<path d="M31.0557 139.87C37.4387 138.014 46.7793 137.811 54.7129 138.116C58.641 138.267 62.157 138.539 64.6904 138.773C65.4178 138.841 66.0635 138.906 66.6143 138.963C66.6094 138.987 66.6045 139.012 66.5996 139.037C66.3362 140.376 65.9846 142.183 65.6328 144.053C65.2815 145.92 64.9283 147.859 64.6621 149.46C64.4111 150.969 64.1963 152.4 64.1963 153.094C64.1963 153.752 64.3997 155.412 64.6523 157.294C64.9169 159.265 65.2693 161.703 65.6201 164.072C65.9712 166.443 66.3218 168.752 66.585 170.468C66.6064 170.608 66.6272 170.744 66.6475 170.876C58.7484 170.493 53.5593 170.519 45.4209 170.929C44.7099 169.081 44.3756 167.645 44.3594 166.241C44.3397 164.535 44.7838 162.674 45.9404 159.992L46.7393 158.141L44.8809 157.357C44.5589 157.222 44.2226 157.158 44.0068 157.124C43.754 157.084 43.4727 157.054 43.1836 157.031C42.6031 156.985 41.8902 156.957 41.1143 156.942C39.5569 156.913 37.6378 156.933 35.7861 156.972C33.9299 157.01 32.1212 157.067 30.7783 157.115C30.3845 157.129 30.0305 157.143 29.7266 157.154C29.4733 156.725 29.1541 156.166 28.8125 155.508C27.975 153.894 27.0211 151.757 26.4658 149.552C25.9021 147.313 25.8093 145.242 26.4121 143.612C26.9655 142.116 28.2125 140.697 31.0557 139.87Z" stroke="black" stroke-width="4"/>
<path d="M122.101 34.7066C132.493 37.888 140.957 42.4961 145.923 47.9146C156.133 59.054 161.346 75.4321 161.314 90.3979C161.282 105.471 155.975 118.332 146.103 123.301C124.835 134.006 98.5693 136.658 50.945 136.019C39.2862 135.863 31.4588 133.317 26.4138 129.261C21.4185 125.246 18.8787 119.529 18.2402 112.399C17.5975 105.222 18.8987 96.7231 21.5134 87.4208C24.1226 78.1382 28.0033 68.1798 32.4179 58.121C40.7986 39.0254 63.6265 30.6359 87.7266 30.108C99.6884 29.8459 111.752 31.5382 122.101 34.7066Z" stroke="black" stroke-width="4"/>
<path d="M71 89C71 89 72.9286 88 75.5 88C78.0714 88 80 89 80 89M72 90C72 95.5228 65.0604 100 56.5 100C47.9396 100 41 95.5228 41 90C41 84.4772 47.9396 80 56.5 80C65.0604 80 72 84.4772 72 90ZM110.5 90C110.5 95.5228 103.56 100 95 100C86.4396 100 79.5 95.5228 79.5 90C79.5 84.4772 86.4396 80 95 80C103.56 80 110.5 84.4772 110.5 90Z" stroke="black" stroke-width="4"/>
</svg>
