<svg width="162" height="109" viewBox="0 0 162 109" fill="none" xmlns="http://www.w3.org/2000/svg">
<path d="M82.4452 20.6185C135.939 -31.8814 177.544 28.6178 154.541 61.1181C131.537 93.6184 81.5352 108.118 81.5352 108.118C81.5352 108.118 32.9449 103.119 7.94524 64.6183C-17.0544 26.118 19.4395 -25.3814 82.4452 20.6185Z" fill="#EBB3B3"/>
<path d="M82.4452 20.6185C135.939 -31.8814 177.544 28.6178 154.541 61.1181C131.537 93.6184 81.5352 108.118 81.5352 108.118C81.5352 108.118 32.9449 103.119 7.94524 64.6183C-17.0544 26.118 19.4395 -25.3814 82.4452 20.6185Z" fill="#EBB3B3"/>
<path d="M82.4452 20.6185C135.939 -31.8814 177.544 28.6178 154.541 61.1181C131.537 93.6184 81.5352 108.118 81.5352 108.118C81.5352 108.118 32.9449 103.119 7.94524 64.6183C-17.0544 26.118 19.4395 -25.3814 82.4452 20.6185Z" stroke="black" stroke-width="12"/>
<path d="M105.446 56.8779C105.575 57.2316 105.564 57.5083 105.442 57.7451C105.313 57.9975 105.014 58.29 104.392 58.5713C103.152 59.1313 101.67 59.2237 100.105 59.0166C98.544 58.8099 96.9383 58.3101 95.4824 57.7275C94.029 57.1459 92.7395 56.4879 91.8125 55.9746C91.3495 55.7182 90.9775 55.4988 90.7227 55.3438C90.5954 55.2663 90.4975 55.2047 90.4316 55.1631L90.3389 55.1045C90.337 55.1033 90.3358 55.1021 90.335 55.1016L90.334 55.1006L90.3174 55.0898L90.3008 55.0811L90.2988 55.0801C90.2969 55.079 90.2933 55.0766 90.2891 55.0742C90.2807 55.0695 90.2679 55.0623 90.251 55.0527C90.2165 55.0332 90.1647 55.0037 90.0986 54.9648C89.9663 54.8869 89.7759 54.7715 89.5469 54.624C89.0877 54.3282 88.4773 53.9053 87.8701 53.3965C87.2608 52.8859 86.6681 52.3003 86.2314 51.6807C85.7923 51.0575 85.5381 50.4388 85.5381 49.8516C85.5381 48.5749 86.2158 47.4223 87.1484 46.4688C88.0782 45.5182 89.2112 44.8192 89.9912 44.459C90.8256 44.0736 93.3 42.8639 96.0762 42.0088C97.4639 41.5814 98.9089 41.2479 100.247 41.1484C101.592 41.0485 102.78 41.1885 103.691 41.6572C104.139 41.8875 104.329 42.119 104.403 42.3086C104.476 42.4944 104.474 42.7289 104.349 43.043C104.084 43.7043 103.367 44.494 102.432 45.3291C101.509 46.1535 100.472 46.9412 99.6162 47.6406C99.1971 47.9832 98.8172 48.3087 98.5371 48.5967C98.3973 48.7405 98.2695 48.8869 98.1729 49.0322C98.0825 49.1681 97.9843 49.3543 97.9717 49.5684C97.9567 49.8237 98.0784 50.0408 98.1748 50.1797C98.2821 50.3343 98.4285 50.4906 98.5889 50.6436C98.9111 50.9508 99.3572 51.3052 99.8545 51.6826C100.867 52.4508 102.118 53.3393 103.214 54.2705C103.759 54.7336 104.251 55.1967 104.644 55.6455C105.04 56.0984 105.313 56.5128 105.446 56.8779Z" fill="#5B5B5B" stroke="black"/>
<path d="M52.6299 56.8779C52.501 57.2316 52.5123 57.5083 52.6338 57.7451C52.7633 57.9975 53.0622 58.29 53.6846 58.5713C54.9238 59.1313 56.4061 59.2237 57.9707 59.0166C59.5321 58.8099 61.1379 58.3101 62.5938 57.7275C64.0472 57.1459 65.3367 56.4879 66.2637 55.9746C66.7267 55.7182 67.0987 55.4988 67.3535 55.3438C67.4808 55.2663 67.5787 55.2047 67.6445 55.1631L67.7373 55.1045C67.7392 55.1033 67.7404 55.1021 67.7412 55.1016L67.7422 55.1006L67.7588 55.0898L67.7754 55.0811L67.7773 55.0801C67.7792 55.079 67.7829 55.0766 67.7871 55.0742C67.7955 55.0695 67.8083 55.0623 67.8252 55.0527C67.8597 55.0332 67.9115 55.0037 67.9775 54.9648C68.1098 54.8869 68.3003 54.7715 68.5293 54.624C68.9885 54.3282 69.5988 53.9053 70.2061 53.3965C70.8154 52.8859 71.408 52.3003 71.8447 51.6807C72.2839 51.0575 72.5381 50.4388 72.5381 49.8516C72.5381 48.5749 71.8604 47.4223 70.9277 46.4688C69.998 45.5182 68.8649 44.8192 68.085 44.459C67.2505 44.0736 64.7762 42.8639 62 42.0088C60.6122 41.5814 59.1673 41.2479 57.8291 41.1484C56.4847 41.0485 55.2961 41.1885 54.3848 41.6572C53.937 41.8875 53.7474 42.119 53.6729 42.3086C53.5999 42.4944 53.6021 42.7289 53.7275 43.043C53.9917 43.7043 54.7096 44.494 55.6445 45.3291C56.5675 46.1535 57.6043 46.9412 58.46 47.6406C58.8791 47.9832 59.259 48.3087 59.5391 48.5967C59.6789 48.7405 59.8067 48.8869 59.9033 49.0322C59.9937 49.1681 60.0919 49.3543 60.1045 49.5684C60.1195 49.8237 59.9977 50.0408 59.9014 50.1797C59.794 50.3343 59.6477 50.4906 59.4873 50.6436C59.1651 50.9508 58.7189 51.3052 58.2217 51.6826C57.2097 52.4508 55.9578 53.3393 54.8623 54.2705C54.3175 54.7336 53.8253 55.1967 53.4326 55.6455C53.0363 56.0984 52.763 56.5128 52.6299 56.8779Z" fill="#5B5B5B" stroke="black"/>
<path d="M81.0381 61.1182C81.7463 61.1182 82.2633 61.233 82.6455 61.4209C83.0202 61.6052 83.2907 61.8725 83.4922 62.2266C83.9147 62.969 84.0381 64.0935 84.0381 65.6182C84.0381 67.132 83.9189 68.5385 83.4697 69.5547C83.2495 70.0528 82.9589 70.4358 82.582 70.6963C82.2079 70.9548 81.7128 71.1182 81.0381 71.1182C79.7227 71.1182 78.8791 70.4957 78.3359 69.5146C77.7745 68.5004 77.5381 67.098 77.5381 65.6182C77.5381 64.1334 77.7775 63.0119 78.3066 62.2695C78.8104 61.5628 79.6374 61.1182 81.0381 61.1182Z" fill="#C77C7C" stroke="black"/>
</svg>
