<svg width="167" height="173" viewBox="0 0 167 173" fill="none" xmlns="http://www.w3.org/2000/svg">
<path d="M86.938 150.029C85.8869 161.302 87.9323 170.711 91.5067 171.044C95.081 171.378 98.8307 162.509 99.8819 151.236C100.933 139.964 98.8876 130.555 95.3133 130.222C91.7389 129.888 87.9892 138.757 86.938 150.029Z" fill="#EBB3B3"/>
<path d="M83.8824 150.029C84.9335 161.302 82.8881 170.711 79.3138 171.044C75.7394 171.378 71.9897 162.509 70.9385 151.236C69.8873 139.964 71.9328 130.555 75.5071 130.222C79.0815 129.888 82.8312 138.757 83.8824 150.029Z" fill="#EBB3B3"/>
<path d="M68.0352 102.618H103.035V147.618H68.0352V102.618Z" fill="white"/>
<path d="M68.0352 102.618H103.035V147.618H68.0352V102.618Z" fill="white"/>
<path d="M32.194 135.471C33.3295 133.474 36.9338 132.935 36.8795 132.777C39.5344 123.702 41.6921 113.846 48.8407 117.083C52.7637 118.776 48.7716 138.648 40.5647 139.299C32.3579 139.949 31.0584 137.467 32.194 135.471Z" fill="#EBB3B3"/>
<path d="M141.953 135.471C140.817 133.474 137.213 132.935 137.267 132.777C134.612 123.702 132.455 113.846 125.306 117.083C121.383 118.776 125.375 138.648 133.582 139.299C141.789 139.949 143.088 137.467 141.953 135.471Z" fill="#EBB3B3"/>
<path d="M96.0352 103.835C96.0352 103.835 98.8384 117.757 98.8384 119.711C98.8384 121.665 96.0352 139.618 96.0352 139.618C105.796 139.083 111.171 139.097 120.931 139.618C123.16 134.439 123.354 131.436 120.931 125.818C122.378 125.207 136.398 125.818 136.398 125.818C136.398 125.818 147.979 108.475 134.537 104.567C121.096 100.659 96.0352 103.835 96.0352 103.835Z" fill="#272727"/>
<path d="M77.0352 103.835C77.0352 103.835 74.232 117.757 74.232 119.711C74.232 121.665 77.0352 139.618 77.0352 139.618C67.2745 139.083 61.8998 139.097 52.1391 139.618C49.91 134.439 49.716 131.436 52.1392 125.818C50.6922 125.207 36.6719 125.818 36.6719 125.818C36.6719 125.818 25.0917 108.475 38.5329 104.567C51.9742 100.659 77.0352 103.835 77.0352 103.835Z" fill="#272727"/>
<path d="M85.0355 24.6041C140.497 -31.5004 180.135 32.6033 157.131 65.1036C134.128 97.6039 84.1255 112.104 84.1255 112.104C84.1255 112.104 35.5351 107.104 10.5355 68.6038C-14.4642 30.1035 21.498 -24.0005 85.0355 24.6041Z" fill="#EBB3B3"/>
<path d="M85.0355 24.6041C140.497 -31.5004 180.135 32.6033 157.131 65.1036C134.128 97.6039 84.1255 112.104 84.1255 112.104C84.1255 112.104 35.5351 107.104 10.5355 68.6038C-14.4642 30.1035 21.498 -24.0005 85.0355 24.6041Z" fill="#EBB3B3"/>
<path d="M102.467 54.5975C102.39 55.9187 114.014 61.5781 108.595 64.0272C103.175 66.4762 94.0578 60.5192 94.0578 60.5192C94.0578 60.5192 89.0352 57.7705 89.0352 54.8514C89.0352 51.9322 92.1291 49.7663 93.7785 49.0046C95.4279 48.2429 103.809 44.0989 107.918 46.2121C112.026 48.3253 102.545 53.2764 102.467 54.5975Z" fill="#5B5B5B"/>
<path d="M63.6029 54.5975C63.6806 55.9187 52.0559 61.5781 57.4758 64.0272C62.8957 66.4762 72.0126 60.5192 72.0126 60.5192C72.0126 60.5192 77.0352 57.7705 77.0352 54.8514C77.0352 51.9322 73.9413 49.7663 72.2919 49.0046C70.6425 48.2429 62.261 44.0989 58.1528 46.2121C54.0445 48.3253 63.5253 53.2764 63.6029 54.5975Z" fill="#5B5B5B"/>
<path d="M88.5352 70.6179C88.5352 73.6555 88.0728 76.6179 85.0352 76.6179C81.9976 76.6179 81.0352 73.6555 81.0352 70.6179C81.0352 67.5804 81.9976 65.6179 85.0352 65.6179C88.0728 65.6179 88.5352 67.5804 88.5352 70.6179Z" fill="#C77C7C"/>
<path d="M33.821 137.004C33.8337 136.966 33.8554 136.912 33.8955 136.842C34.0965 136.489 34.6912 136.063 35.6722 135.68C36.1073 135.511 36.52 135.386 36.8659 135.282C37.014 135.238 37.2151 135.178 37.3694 135.124C37.4306 135.102 37.6015 135.042 37.7804 134.943C37.8529 134.902 38.085 134.773 38.3088 134.53C38.4347 134.393 38.6799 134.072 38.79 133.622C40.152 128.959 41.2742 124.585 42.8887 121.663C43.6886 120.216 44.4594 119.42 45.1704 119.073C45.7576 118.786 46.5712 118.674 47.8894 119.251C47.9186 119.298 47.9693 119.388 48.0257 119.547C48.1791 119.98 48.2978 120.667 48.3196 121.606C48.363 123.469 48.0176 125.924 47.2947 128.405C46.571 130.887 45.5114 133.249 44.227 134.984C42.9206 136.748 41.5954 137.591 40.3694 137.688C36.337 138.008 34.5485 137.487 33.9322 137.085C33.882 137.052 33.8458 137.025 33.821 137.004Z" stroke="black" stroke-width="4"/>
<path d="M140.251 137.004C140.239 136.966 140.217 136.912 140.177 136.842C139.976 136.489 139.381 136.063 138.4 135.68C137.965 135.511 137.552 135.386 137.206 135.282C137.058 135.238 136.857 135.178 136.703 135.124C136.642 135.102 136.471 135.042 136.292 134.943C136.219 134.902 135.987 134.773 135.763 134.53C135.638 134.393 135.392 134.072 135.282 133.622C133.92 128.959 132.798 124.585 131.184 121.663C130.384 120.216 129.613 119.42 128.902 119.073C128.315 118.786 127.501 118.674 126.183 119.251C126.154 119.298 126.103 119.388 126.047 119.547C125.893 119.98 125.775 120.667 125.753 121.606C125.709 123.469 126.055 125.924 126.778 128.405C127.501 130.887 128.561 133.249 129.845 134.984C131.152 136.748 132.477 137.591 133.703 137.688C137.735 138.008 139.524 137.487 140.14 137.085C140.19 137.052 140.226 137.025 140.251 137.004Z" stroke="black" stroke-width="4"/>
<path d="M134.942 106.87C128.559 105.014 119.219 104.811 111.285 105.116C107.357 105.267 103.841 105.539 101.308 105.773C100.58 105.841 99.9345 105.906 99.3838 105.963C99.3886 105.987 99.3936 106.012 99.3984 106.037C99.6619 107.376 100.013 109.183 100.365 111.053C100.717 112.92 101.07 114.859 101.336 116.46C101.587 117.969 101.802 119.4 101.802 120.094C101.802 120.752 101.598 122.412 101.346 124.294C101.081 126.265 100.729 128.703 100.378 131.072C100.027 133.443 99.6762 135.752 99.4131 137.468C99.3916 137.608 99.3709 137.744 99.3506 137.876C107.25 137.493 112.439 137.519 120.577 137.929C121.288 136.081 121.622 134.645 121.639 133.241C121.658 131.535 121.214 129.674 120.058 126.992L119.259 125.141L121.117 124.357C121.439 124.222 121.775 124.158 121.991 124.124C122.244 124.084 122.525 124.054 122.814 124.031C123.395 123.985 124.108 123.957 124.884 123.942C126.441 123.913 128.36 123.933 130.212 123.972C132.068 124.01 133.877 124.067 135.22 124.115C135.614 124.129 135.968 124.143 136.271 124.154C136.525 123.725 136.844 123.166 137.186 122.508C138.023 120.894 138.977 118.757 139.532 116.552C140.096 114.313 140.189 112.242 139.586 110.612C139.033 109.116 137.786 107.697 134.942 106.87Z" stroke="black" stroke-width="4"/>
<path d="M39.0537 106.87C45.4367 105.014 54.7773 104.811 62.7109 105.116C66.6391 105.267 70.1551 105.539 72.6885 105.773C73.4159 105.841 74.0616 105.906 74.6123 105.963C74.6075 105.987 74.6025 106.012 74.5977 106.037C74.3342 107.376 73.9826 109.183 73.6309 111.053C73.2795 112.92 72.9264 114.859 72.6602 116.46C72.4092 117.969 72.1943 119.4 72.1943 120.094C72.1944 120.752 72.3977 122.412 72.6504 124.294C72.915 126.265 73.2673 128.703 73.6182 131.072C73.9692 133.443 74.3199 135.752 74.583 137.468C74.6045 137.608 74.6252 137.744 74.6455 137.876C66.7464 137.493 61.5573 137.519 53.4189 137.929C52.7079 136.081 52.3736 134.645 52.3574 133.241C52.3378 131.535 52.7819 129.674 53.9385 126.992L54.7373 125.141L52.8789 124.357C52.5569 124.222 52.2206 124.158 52.0049 124.124C51.7521 124.084 51.4708 124.054 51.1816 124.031C50.6011 123.985 49.8883 123.957 49.1123 123.942C47.555 123.913 45.6358 123.933 43.7842 123.972C41.928 124.01 40.1193 124.067 38.7764 124.115C38.3826 124.129 38.0285 124.143 37.7246 124.154C37.4714 123.725 37.1521 123.166 36.8105 122.508C35.973 120.894 35.0192 118.757 34.4639 116.552C33.9001 114.313 33.8074 112.242 34.4102 110.612C34.9635 109.116 36.2106 107.697 39.0537 106.87Z" stroke="black" stroke-width="4"/>
<path d="M85.4575 23.3588C139.61 -31.0261 181.727 31.6452 158.44 65.3123C135.154 98.9795 84.5363 114 84.5363 114C84.5363 114 35.3482 108.821 10.041 68.9382C-15.2662 29.0557 21.6767 -24.2927 85.4575 23.3588Z" stroke="black" stroke-width="4"/>
<line x1="66.998" y1="138" x2="66.998" y2="147" stroke="black" stroke-width="4"/>
<line x1="104.998" y1="139" x2="104.998" y2="148" stroke="black" stroke-width="4"/>
<line x1="64.998" y1="146" x2="102.998" y2="146" stroke="black" stroke-width="4"/>
<path d="M69.998 148C72.8811 166.294 74.8627 170.709 78.998 170.5C82.9578 170.569 83.7865 164.443 83.998 148" stroke="black" stroke-width="4"/>
<path d="M100.998 148C98.115 166.294 96.1334 170.709 91.998 170.5C88.0383 170.569 87.2096 164.443 86.998 148" stroke="black" stroke-width="4"/>
</svg>
