<svg width="135" height="123" viewBox="0 0 135 123" fill="none" xmlns="http://www.w3.org/2000/svg">
<path d="M67.9033 3.50195C85.3082 3.63387 98.0814 9.42823 107.402 18.124C116.791 26.8827 122.877 38.779 126.454 51.3477C130.029 63.9083 131.04 76.9447 130.429 87.7275C130.123 93.1157 129.416 97.8752 128.453 101.682C127.467 105.581 126.294 108.15 125.264 109.445C124.402 110.528 122.318 111.897 118.562 113.246C114.94 114.548 110.243 115.666 104.752 116.573C93.7836 118.385 80.042 119.286 66.2568 119.266C52.4716 119.245 38.785 118.303 27.9277 116.481C22.4914 115.57 17.8668 114.454 14.3311 113.169C10.6465 111.83 8.70891 110.502 7.96973 109.521C7.04721 108.295 5.98093 105.762 5.12012 101.839C4.28278 98.0228 3.71136 93.2337 3.54785 87.8047C3.22065 76.9405 4.53286 63.7793 8.38281 51.1172C12.2358 38.4452 18.568 26.4724 28.1377 17.7285C37.6366 9.04934 50.5141 3.37018 67.9033 3.50195Z" fill="#62839A" stroke="black" stroke-width="7"/>
<ellipse cx="56.0515" cy="75.211" rx="6.38551" ry="8.4317" fill="#5B5B5B"/>
<ellipse cx="80.8826" cy="75.211" rx="6.38551" ry="8.4317" fill="#5B5B5B"/>
<ellipse cx="69.5316" cy="107.251" rx="9.93301" ry="1.34907" fill="#C77C7C"/>
</svg>
