<svg width="135" height="172" viewBox="0 0 135 172" fill="none" xmlns="http://www.w3.org/2000/svg">
<path d="M109.149 144.879C111.208 144.995 112.23 144.396 112.77 143.833C113.368 143.207 113.656 142.327 113.707 141.514C113.716 141.363 113.712 141.259 113.707 141.191C113.503 141.1 113.108 140.983 112.369 140.879C111.628 140.775 110.669 140.698 109.414 140.627C108.158 140.556 107.203 140.526 106.465 140.546C105.764 140.566 105.376 140.633 105.172 140.693C105.159 140.765 105.142 140.874 105.132 141.031C105.08 141.873 105.247 142.779 105.743 143.455C106.184 144.057 107.09 144.763 109.149 144.879Z" fill="#62839A" stroke="black" stroke-width="4"/>
<path d="M27.4314 145.725C25.5562 145.831 24.5534 145.156 23.926 144.333C23.2126 143.398 22.8557 142.074 22.7804 140.867C22.7424 140.256 22.8007 140.007 22.8296 139.928C22.83 139.927 22.831 139.926 22.8313 139.925C22.841 139.918 22.8571 139.906 22.8821 139.892C23.037 139.803 23.3857 139.668 24.1199 139.548C24.837 139.431 25.7778 139.349 27.0297 139.279C28.2821 139.208 29.2194 139.185 29.9359 139.221C30.6709 139.258 31.0145 139.352 31.1604 139.417C31.1728 139.422 31.1831 139.426 31.1906 139.43C31.2317 139.514 31.3162 139.766 31.3547 140.384C31.4314 141.614 31.2554 142.968 30.6821 143.971C30.1835 144.844 29.3027 145.62 27.4314 145.725Z" fill="#62839A" stroke="black" stroke-width="4"/>
<path d="M52.0369 168.972C50.7434 169.045 49.618 168.256 48.6468 166.134C47.69 164.044 47.2074 161.249 47.0582 158.856C46.899 156.301 47.2451 155.723 47.4327 155.538C47.5339 155.439 47.7735 155.271 48.3996 155.118C49.0371 154.963 49.9134 154.862 51.1532 154.792C52.394 154.722 53.2691 154.724 53.9103 154.807C54.5384 154.887 54.7775 155.026 54.875 155.104C55.0718 155.26 55.4717 155.792 55.6325 158.373C55.7824 160.779 55.6709 163.609 55 165.792C54.3198 168.005 53.3199 168.9 52.0369 168.972Z" fill="#62839A" stroke="black" stroke-width="4"/>
<path d="M83.6985 169.647C84.9919 169.72 86.1174 168.931 87.0886 166.809C88.0454 164.719 88.5279 161.924 88.6771 159.531C88.8364 156.976 88.4903 156.397 88.3027 156.213C88.2015 156.114 87.9618 155.945 87.3357 155.793C86.6983 155.638 85.8219 155.537 84.5822 155.467C83.3414 155.397 82.4663 155.399 81.825 155.482C81.1969 155.562 80.9578 155.701 80.8604 155.778C80.6636 155.934 80.2637 156.467 80.1028 159.048C79.9529 161.454 80.0645 164.284 80.7354 166.467C81.4156 168.68 82.4154 169.575 83.6985 169.647Z" fill="#62839A" stroke="black" stroke-width="4"/>
<rect x="40.3125" y="118.021" width="53.4696" height="45.2412" fill="white" stroke="black" stroke-width="4"/>
<path d="M21.7754 111.894C26.6434 109.294 33.883 108.972 40.2256 109.42C43.3389 109.64 46.1288 110.035 48.1406 110.377C48.6927 110.471 49.185 110.561 49.6084 110.642C49.5626 111.066 49.5099 111.554 49.4521 112.093C49.2406 114.067 48.9589 116.73 48.6768 119.484C48.1211 124.908 47.5391 130.918 47.5391 132.493C47.5392 134.042 48.115 141.515 48.6729 148.434C48.9548 151.93 49.2359 155.336 49.4473 157.867C49.5031 158.535 49.554 159.143 49.5986 159.675C43.5961 159.157 39.4706 159.188 33.3418 159.733C32.7122 156.782 32.3864 154.368 32.3711 151.93C32.353 149.042 32.7672 146.027 33.7207 141.967L34.0146 140.716L32.999 139.929C32.6315 139.644 32.2356 139.509 32.0049 139.441C31.7378 139.363 31.4581 139.311 31.1963 139.272C30.6708 139.195 30.051 139.153 29.4092 139.131C28.1162 139.086 26.541 139.116 25.043 139.173C23.5367 139.23 22.0713 139.317 20.9854 139.388C20.9014 139.393 20.8196 139.399 20.7402 139.404C20.5289 138.747 20.2618 137.887 19.9756 136.874C19.2868 134.437 18.4854 131.151 18.0137 127.712C17.5387 124.248 17.4166 120.759 18 117.862C18.5813 114.976 19.7965 112.95 21.7754 111.894Z" fill="#272727" stroke="black" stroke-width="4"/>
<path d="M114.448 111.894C109.58 109.294 102.341 108.972 95.998 109.42C92.8848 109.64 90.0949 110.035 88.083 110.377C87.531 110.471 87.0386 110.561 86.6152 110.642C86.661 111.066 86.7137 111.554 86.7715 112.093C86.983 114.067 87.2647 116.73 87.5469 119.484C88.1025 124.908 88.6846 130.918 88.6846 132.493C88.6845 134.042 88.1087 141.515 87.5508 148.434C87.2688 151.93 86.9878 155.336 86.7764 157.867C86.7206 158.535 86.6697 159.143 86.625 159.675C92.6275 159.157 96.753 159.188 102.882 159.733C103.511 156.782 103.837 154.368 103.853 151.93C103.871 149.042 103.456 146.027 102.503 141.967L102.209 140.716L103.225 139.929C103.592 139.644 103.988 139.509 104.219 139.441C104.486 139.363 104.766 139.311 105.027 139.272C105.553 139.195 106.173 139.153 106.814 139.131C108.107 139.086 109.683 139.116 111.181 139.173C112.687 139.23 114.152 139.317 115.238 139.388C115.322 139.393 115.404 139.399 115.483 139.404C115.695 138.747 115.962 137.887 116.248 136.874C116.937 134.437 117.738 131.151 118.21 127.712C118.685 124.248 118.807 120.759 118.224 117.862C117.642 114.976 116.427 112.95 114.448 111.894Z" fill="#272727" stroke="black" stroke-width="4"/>
<path d="M67.915 2.00195C85.6809 2.13666 98.8194 8.06526 108.426 17.0273C118.071 26.0254 124.269 38.1918 127.896 50.9365C131.523 63.6768 132.547 76.8827 131.927 87.8125C131.617 93.2752 130.899 98.1317 129.908 102.049C128.904 106.02 127.667 108.835 126.438 110.38C125.305 111.803 122.885 113.286 119.069 114.657C115.33 116.001 110.536 117.139 104.996 118.054C93.9235 119.882 80.0957 120.786 66.2549 120.766C52.4138 120.745 38.6409 119.8 27.6797 117.961C22.1947 117.041 17.472 115.906 13.8184 114.578C10.0796 113.219 7.78514 111.77 6.77051 110.423C5.65101 108.936 4.52896 106.147 3.6543 102.161C2.79302 98.2361 2.21453 93.3512 2.04883 87.8496C1.71736 76.8432 3.04427 63.5173 6.94727 50.6807C10.852 37.8384 17.2996 25.5996 27.126 16.6211C36.912 7.67964 50.158 1.86737 67.915 2.00195Z" fill="#62839A" stroke="black" stroke-width="4"/>
<ellipse cx="56.0505" cy="75.211" rx="6.38551" ry="8.4317" fill="#5B5B5B"/>
<ellipse cx="80.8826" cy="75.211" rx="6.38551" ry="8.4317" fill="#5B5B5B"/>
<ellipse cx="69.5316" cy="107.251" rx="9.93301" ry="1.34907" fill="#C77C7C"/>
</svg>
