<svg width="176" height="193" viewBox="0 0 176 193" fill="none" xmlns="http://www.w3.org/2000/svg">
<path d="M96.0924 152.595C96.0909 152.595 96.0242 152.584 95.8588 152.67C95.6791 152.764 95.4172 152.956 95.0915 153.316C94.4307 154.045 93.6993 155.248 92.9867 156.934C91.5708 160.282 90.4061 165.107 89.8942 170.597C89.3823 176.087 89.6348 181.044 90.4072 184.597C90.7959 186.385 91.2922 187.703 91.8067 188.542C92.0604 188.955 92.2822 189.193 92.4415 189.318C92.5882 189.433 92.6556 189.435 92.6571 189.435C92.6587 189.435 92.7253 189.446 92.8907 189.36C93.0704 189.266 93.3323 189.074 93.6581 188.714C94.3188 187.985 95.0502 186.782 95.7628 185.096C97.1787 181.748 98.3434 176.923 98.8553 171.433C99.3673 165.943 99.1147 160.986 98.3424 157.433C97.9536 155.645 97.4573 154.327 96.9428 153.488C96.6891 153.075 96.4673 152.837 96.308 152.712C96.1614 152.597 96.0939 152.595 96.0924 152.595Z" fill="#FFF79F" stroke="black" stroke-width="4"/>
<path d="M76.6576 152.595C76.6591 152.595 76.7258 152.584 76.8912 152.67C77.0709 152.764 77.3328 152.956 77.6585 153.316C78.3193 154.045 79.0507 155.248 79.7633 156.934C81.1792 160.282 82.3439 165.107 82.8558 170.597C83.3677 176.087 83.1152 181.044 82.3428 184.597C81.9541 186.385 81.4578 187.703 80.9433 188.542C80.6896 188.955 80.4678 189.193 80.3085 189.318C80.1618 189.433 80.0944 189.435 80.0929 189.435C80.0913 189.435 80.0247 189.446 79.8593 189.36C79.6796 189.266 79.4177 189.074 79.0919 188.714C78.4312 187.985 77.6998 186.782 76.9872 185.096C75.5713 181.748 74.4066 176.923 73.8947 171.433C73.3827 165.943 73.6353 160.986 74.4076 157.433C74.7964 155.645 75.2927 154.327 75.8072 153.488C76.0609 153.075 76.2827 152.837 76.442 152.712C76.5886 152.597 76.6561 152.595 76.6576 152.595Z" fill="#FFF79F" stroke="black" stroke-width="4"/>
<rect x="71" y="125" width="31" height="41" fill="white" stroke="black" stroke-width="4"/>
<rect x="72" y="129" width="31" height="41" fill="white" stroke="black" stroke-width="4"/>
<path d="M84.5508 3.80371C86.7078 2.79097 89.2233 2.82217 91.3545 3.8877C125.194 20.8084 143.522 35.1405 169.891 62.9209C172.14 65.2909 172.683 68.826 171.236 71.7363C160.862 92.6081 151.176 106.513 138.708 115.652C126.272 124.767 110.839 129.306 88.627 130.949C88.2256 130.979 87.7985 130.977 87.3975 130.942C65.5018 129.065 50.1399 124.54 37.6436 115.449C25.1194 106.338 15.2473 92.48 4.66699 71.46C3.25586 68.6561 3.6938 65.2484 5.7666 62.8789C30.6052 34.4844 49.0906 20.4528 84.5508 3.80371Z" fill="#FFF79F" stroke="black" stroke-width="4"/>
<path d="M67.3505 52.3196C67.9561 50.9978 70.0361 50.9993 70.6263 52.328C73.0005 57.6727 76.1086 60.6414 81.9105 62.5351C83.4103 63.0246 83.5385 65.4468 82.075 66.0362C76.2592 68.3786 72.9245 71.1318 70.5916 75.9513C69.9703 77.235 67.9491 77.2667 67.3322 75.9809C64.9942 71.1084 62.0375 68.1242 56.3587 65.917C54.8685 65.3379 54.9006 62.7897 56.4048 62.248C61.9127 60.2644 65.0179 57.4111 67.3505 52.3196Z" fill="#D4C519"/>
<path d="M105.35 52.3196C105.956 50.9978 108.036 50.9993 108.626 52.328C111.001 57.6727 114.109 60.6414 119.91 62.5351C121.41 63.0246 121.538 65.4468 120.075 66.0362C114.259 68.3786 110.924 71.1318 108.592 75.9513C107.97 77.235 105.949 77.2667 105.332 75.9809C102.994 71.1084 100.037 68.1242 94.3587 65.917C92.8685 65.3379 92.9006 62.7897 94.4048 62.248C99.9127 60.2644 103.018 57.4111 105.35 52.3196Z" fill="#D4C519"/>
<path d="M86.8412 88.5373C87.6339 89.7142 89.3661 89.7142 90.1588 88.5373L95.4935 80.6173C96.3883 79.2889 95.4364 77.5 93.8347 77.5H83.1653C81.5636 77.5 80.6117 79.2889 81.5065 80.6173L86.8412 88.5373Z" fill="#C77C7C"/>
<path d="M39.2137 137.779C39.2157 137.777 39.2644 137.73 39.4473 137.704C39.6478 137.675 39.9727 137.678 40.4471 137.779C41.4095 137.985 42.7067 138.535 44.27 139.486C47.3757 141.376 51.1396 144.61 54.763 148.766C58.3864 152.922 61.0779 157.093 62.5271 160.427C63.2565 162.105 63.624 163.465 63.6965 164.446C63.7322 164.93 63.691 165.252 63.6349 165.447C63.5836 165.625 63.5304 165.666 63.5284 165.668C63.5272 165.669 63.4794 165.717 63.2948 165.743C63.0943 165.772 62.7694 165.769 62.295 165.668C61.3327 165.462 60.0359 164.913 58.4727 163.962C55.367 162.072 51.6026 158.837 47.9791 154.681C44.3558 150.525 41.6648 146.355 40.2156 143.021C39.4861 141.342 39.1181 139.982 39.0456 139.001C39.0099 138.517 39.0511 138.195 39.1072 138C39.1589 137.821 39.2126 137.78 39.2137 137.779Z" fill="#FFF79F" stroke="black" stroke-width="4"/>
<path d="M136.386 140.177C136.385 140.175 136.343 140.122 136.164 140.073C135.968 140.02 135.645 139.983 135.162 140.025C134.182 140.111 132.827 140.497 131.158 141.249C127.844 142.743 123.711 145.49 119.604 149.169C115.497 152.848 112.313 156.655 110.465 159.786C109.535 161.362 109.003 162.666 108.81 163.631C108.715 164.107 108.717 164.432 108.748 164.632C108.778 164.816 108.826 164.863 108.827 164.864C108.828 164.866 108.871 164.919 109.049 164.968C109.245 165.021 109.568 165.058 110.051 165.016C111.031 164.93 112.386 164.544 114.054 163.793C117.368 162.299 121.502 159.551 125.609 155.872C129.716 152.193 132.899 148.386 134.747 145.255C135.678 143.679 136.21 142.375 136.403 141.41C136.498 140.934 136.496 140.609 136.465 140.409C136.436 140.226 136.388 140.178 136.386 140.177Z" fill="#FFF79F" stroke="black" stroke-width="4"/>
<path d="M40.0557 126.87C46.4387 125.014 55.7793 124.811 63.7129 125.116C67.641 125.267 71.157 125.539 73.6904 125.773C74.4178 125.841 75.0635 125.906 75.6143 125.963C75.6094 125.987 75.6045 126.012 75.5996 126.037C75.3362 127.376 74.9846 129.183 74.6328 131.053C74.2815 132.92 73.9283 134.859 73.6621 136.46C73.4111 137.969 73.1963 139.4 73.1963 140.094C73.1963 140.752 73.3997 142.412 73.6523 144.294C73.9169 146.265 74.2693 148.703 74.6201 151.072C74.9712 153.443 75.3218 155.752 75.585 157.468C75.6064 157.608 75.6272 157.744 75.6475 157.876C67.7484 157.493 62.5593 157.519 54.4209 157.929C53.7099 156.081 53.3756 154.645 53.3594 153.241C53.3397 151.535 53.7838 149.674 54.9404 146.992L55.7393 145.141L53.8809 144.357C53.5589 144.222 53.2226 144.158 53.0068 144.124C52.754 144.084 52.4727 144.054 52.1836 144.031C51.6031 143.985 50.8902 143.957 50.1143 143.942C48.5569 143.913 46.6378 143.933 44.7861 143.972C42.9299 144.01 41.1212 144.067 39.7783 144.115C39.3845 144.129 39.0305 144.143 38.7266 144.154C38.4733 143.725 38.1541 143.166 37.8125 142.508C36.975 140.894 36.0211 138.757 35.4658 136.552C34.9021 134.313 34.8093 132.242 35.4121 130.612C35.9655 129.116 37.2125 127.697 40.0557 126.87Z" fill="#272727" stroke="black" stroke-width="4"/>
<path d="M134.944 126.87C128.561 125.014 119.221 124.811 111.287 125.116C107.359 125.267 103.843 125.539 101.31 125.773C100.582 125.841 99.9365 125.906 99.3857 125.963C99.3906 125.987 99.3955 126.012 99.4004 126.037C99.6638 127.376 100.015 129.183 100.367 131.053C100.719 132.92 101.072 134.859 101.338 136.46C101.589 137.969 101.804 139.4 101.804 140.094C101.804 140.752 101.6 142.412 101.348 144.294C101.083 146.265 100.731 148.703 100.38 151.072C100.029 153.443 99.6782 155.752 99.415 157.468C99.3936 157.608 99.3728 157.744 99.3525 157.876C107.252 157.493 112.441 157.519 120.579 157.929C121.29 156.081 121.624 154.645 121.641 153.241C121.66 151.535 121.216 149.674 120.06 146.992L119.261 145.141L121.119 144.357C121.441 144.222 121.777 144.158 121.993 144.124C122.246 144.084 122.527 144.054 122.816 144.031C123.397 143.985 124.11 143.957 124.886 143.942C126.443 143.913 128.362 143.933 130.214 143.972C132.07 144.01 133.879 144.067 135.222 144.115C135.615 144.129 135.97 144.143 136.273 144.154C136.527 143.725 136.846 143.166 137.188 142.508C138.025 140.894 138.979 138.757 139.534 136.552C140.098 134.313 140.191 132.242 139.588 130.612C139.035 129.116 137.787 127.697 134.944 126.87Z" fill="#272727" stroke="black" stroke-width="4"/>
</svg>
