<svg width="187" height="146" viewBox="0 0 187 146" fill="none" xmlns="http://www.w3.org/2000/svg">
<path d="M87.3672 4.75977C91.0478 3.03178 95.3306 3.08465 98.9678 4.90332C133.447 22.1443 152.281 36.8838 179.033 65.0684C182.856 69.0962 183.8 75.1184 181.314 80.1191C170.814 101.245 160.649 116.1 147.112 126.022C133.519 135.986 116.93 140.686 94.1855 142.369C93.4925 142.42 92.7733 142.416 92.0811 142.356C69.6811 140.436 53.1929 135.748 39.5615 125.832C25.9788 115.951 15.6259 101.16 4.9082 79.8672C2.48486 75.0525 3.24209 69.2371 6.78027 65.1924C32.1244 36.22 51.2258 21.7287 87.3672 4.75977Z" fill="#FFF79F" stroke="black" stroke-width="7"/>
<path d="M72.5039 58.2539C73.1096 56.9324 75.1891 56.9341 75.7793 58.2627C78.1535 63.6073 81.2618 66.576 87.0635 68.4697C88.5632 68.9592 88.6918 71.3812 87.2285 71.9707C81.4128 74.3131 78.078 77.0664 75.7451 81.8857C75.1238 83.1694 73.1023 83.2008 72.4854 81.915C70.1475 77.0428 67.1904 74.0587 61.5117 71.8516C60.022 71.2723 60.054 68.7246 61.5576 68.1826C67.0655 66.199 70.1713 63.3454 72.5039 58.2539Z" fill="#E5D73D"/>
<path d="M72.5039 58.2539C73.1096 56.9324 75.1891 56.9341 75.7793 58.2627C78.1535 63.6073 81.2618 66.576 87.0635 68.4697C88.5632 68.9592 88.6918 71.3812 87.2285 71.9707C81.4128 74.3131 78.078 77.0664 75.7451 81.8857C75.1238 83.1694 73.1023 83.2008 72.4854 81.915C70.1475 77.0428 67.1904 74.0587 61.5117 71.8516C60.022 71.2723 60.054 68.7246 61.5576 68.1826C67.0655 66.199 70.1713 63.3454 72.5039 58.2539Z" stroke="black"/>
<path d="M110.504 58.2539C111.11 56.9324 113.189 56.9341 113.779 58.2627C116.153 63.6073 119.262 66.576 125.063 68.4697C126.563 68.9592 126.692 71.3812 125.229 71.9707C119.413 74.3131 116.078 77.0664 113.745 81.8857C113.124 83.1694 111.102 83.2008 110.485 81.915C108.147 77.0428 105.19 74.0587 99.5117 71.8516C98.022 71.2723 98.054 68.7246 99.5576 68.1826C105.066 66.199 108.171 63.3454 110.504 58.2539Z" fill="#E5D73D"/>
<path d="M110.504 58.2539C111.11 56.9324 113.189 56.9341 113.779 58.2627C116.153 63.6073 119.262 66.576 125.063 68.4697C126.563 68.9592 126.692 71.3812 125.229 71.9707C119.413 74.3131 116.078 77.0664 113.745 81.8857C113.124 83.1694 111.102 83.2008 110.485 81.915C108.147 77.0428 105.19 74.0587 99.5117 71.8516C98.022 71.2723 98.054 68.7246 99.5576 68.1826C105.066 66.199 108.171 63.3454 110.504 58.2539Z" stroke="black"/>
<path d="M92.8242 95.7031C93.2206 96.2915 94.0861 96.2915 94.4824 95.7031L101.696 84.9932C102.144 84.3289 101.668 83.4346 100.867 83.4346H86.4395C85.6386 83.4346 85.1629 84.3289 85.6104 84.9932L92.8242 95.7031Z" fill="#C77C7C"/>
<path d="M92.8242 95.7031C93.2206 96.2915 94.0861 96.2915 94.4824 95.7031L101.696 84.9932C102.144 84.3289 101.668 83.4346 100.867 83.4346H86.4395C85.6386 83.4346 85.1629 84.3289 85.6104 84.9932L92.8242 95.7031Z" stroke="black"/>
</svg>
