<svg width="192" height="192" viewBox="0 0 192 192" fill="none" xmlns="http://www.w3.org/2000/svg">
<path d="M43.8275 156.177C42.4185 155.576 41.685 154.095 41.8457 151.339C42.0025 148.649 43.019 145.482 44.1448 142.921C45.3382 140.206 46.0461 139.637 46.4724 139.492C46.6796 139.422 47.0435 139.373 47.7568 139.528C48.486 139.687 49.4207 140.022 50.6916 140.564C51.9631 141.106 52.8421 141.545 53.4475 141.955C54.0383 142.355 54.2348 142.639 54.3144 142.82C54.3885 142.988 54.4613 143.296 54.3386 143.951C54.2105 144.635 53.8971 145.552 53.331 146.84C52.2005 149.411 50.5711 152.319 48.7068 154.282C46.7979 156.292 45.2267 156.774 43.8275 156.177Z" fill="#D2D8BA" stroke="black" stroke-width="4"/>
<path d="M150.941 160.069C152.35 159.468 153.084 157.987 152.923 155.231C152.766 152.54 151.75 149.373 150.624 146.813C149.43 144.098 148.722 143.529 148.296 143.384C148.089 143.313 147.725 143.265 147.012 143.42C146.283 143.579 145.348 143.913 144.077 144.455C142.805 144.998 141.926 145.437 141.321 145.847C140.73 146.247 140.534 146.53 140.454 146.711C140.38 146.88 140.307 147.187 140.43 147.843C140.558 148.527 140.872 149.444 141.438 150.732C142.568 153.303 144.197 156.211 146.062 158.174C147.971 160.183 149.542 160.666 150.941 160.069Z" fill="#D2D8BA" stroke="black" stroke-width="4"/>
<path d="M82.6584 189.593C81.1174 189.683 79.7855 188.681 78.6694 186.155C77.5786 183.686 77.0364 180.41 76.8689 177.626C76.6914 174.673 77.0628 173.855 77.3754 173.537C77.5286 173.382 77.8327 173.176 78.5423 172.997C79.2669 172.814 80.2547 172.697 81.6373 172.617C83.0209 172.536 84.0074 172.537 84.7368 172.634C85.4493 172.729 85.756 172.896 85.9106 173.023C86.0537 173.14 86.2589 173.381 86.4489 174.018C86.6474 174.684 86.7872 175.641 86.8714 177.042C87.0396 179.838 86.9165 183.155 86.1517 185.733C85.3696 188.37 84.1888 189.503 82.6584 189.593Z" fill="#D2D8BA" stroke="black" stroke-width="4"/>
<path d="M114.721 189.593C116.262 189.683 117.593 188.681 118.71 186.155C119.8 183.686 120.342 180.41 120.51 177.626C120.688 174.673 120.316 173.855 120.004 173.537C119.85 173.382 119.546 173.176 118.837 172.997C118.112 172.814 117.124 172.697 115.742 172.617C114.358 172.536 113.372 172.537 112.642 172.634C111.93 172.729 111.623 172.896 111.468 173.023C111.325 173.14 111.12 173.381 110.93 174.018C110.732 174.684 110.592 175.641 110.507 177.042C110.339 179.838 110.462 183.155 111.227 185.733C112.009 188.37 113.19 189.503 114.721 189.593Z" fill="#D2D8BA" stroke="black" stroke-width="4"/>
<rect x="63.0361" y="126.292" width="67.9001" height="52.8187" fill="white" stroke="black" stroke-width="4"/>
<path d="M60.3917 117.2C66.7742 117.159 74.226 120.725 80.3094 124.563C83.3015 126.452 85.8709 128.346 87.6922 129.768C88.282 130.229 88.7915 130.641 89.2111 130.984C88.8908 131.444 88.5065 131.997 88.0723 132.621C86.7587 134.51 84.9897 137.061 83.1703 139.704C79.5789 144.919 75.6584 150.682 74.7899 152.259C73.9344 153.813 70.3436 161.679 67.0309 169.006C65.3597 172.703 63.7394 176.308 62.5367 178.988C62.1533 179.842 61.8126 180.603 61.526 181.242C55.6382 177.377 51.4608 175.184 44.8344 172.391C45.8839 168.928 46.9346 166.211 48.3302 163.639C49.9433 160.666 52.0609 157.806 55.2908 154.184L56.1337 153.239L55.6395 152.086C55.4508 151.646 55.1558 151.324 54.9693 151.138C54.7565 150.927 54.5161 150.73 54.2808 150.555C53.8089 150.203 53.2215 149.835 52.5963 149.472C51.3377 148.741 49.7544 147.934 48.2292 147.194C46.6964 146.45 45.1881 145.757 44.0657 145.25C43.9151 145.182 43.7706 145.118 43.6345 145.057C43.7941 144.249 44.0238 143.147 44.3324 141.846C45.0082 138.998 46.0483 135.221 47.5065 131.46C48.9734 127.677 50.8177 124.031 53.0549 121.359C55.29 118.691 57.7171 117.217 60.3917 117.2Z" fill="#272727" stroke="black" stroke-width="4"/>
<path d="M134.674 120.499C128.296 120.73 121.009 124.61 115.1 128.704C112.194 130.718 109.71 132.72 107.953 134.219C107.384 134.704 106.893 135.137 106.49 135.498C106.83 135.944 107.238 136.48 107.7 137.085C109.095 138.917 110.974 141.39 112.908 143.953C116.725 149.011 120.896 154.601 121.833 156.139C122.755 157.655 126.687 165.36 130.319 172.54C132.151 176.161 133.928 179.694 135.248 182.32C135.669 183.158 136.043 183.904 136.357 184.532C142.069 180.42 146.146 178.05 152.643 174.978C151.442 171.562 150.273 168.892 148.765 166.381C147.023 163.48 144.782 160.712 141.396 157.231L140.513 156.325L140.956 155.152C141.125 154.705 141.405 154.371 141.584 154.177C141.787 153.956 142.019 153.75 142.246 153.564C142.702 153.193 143.273 152.8 143.882 152.411C145.107 151.627 146.654 150.753 148.145 149.948C149.644 149.139 151.121 148.383 152.22 147.829C152.367 147.755 152.507 147.684 152.64 147.618C152.445 146.817 152.168 145.727 151.802 144.44C151.002 141.623 149.798 137.893 148.175 134.198C146.544 130.481 144.54 126.916 142.187 124.342C139.836 121.771 137.346 120.402 134.674 120.499Z" fill="#272727" stroke="black" stroke-width="4"/>
<path d="M73.8887 34.2051C79.7596 30.8602 87.5307 28.7562 98.04 29.0225C108.548 29.2888 116.104 31.7831 121.704 35.418C127.309 39.0559 131.098 43.9286 133.925 49.1787C136.77 54.4619 138.599 60.0369 140.355 65.1211C141.224 67.6343 142.084 70.0503 143.037 72.1758C143.987 74.2941 145.08 76.2437 146.469 77.7705C151.369 83.1599 154.571 85.1648 157.703 87.2842C160.686 89.3022 163.711 91.4877 168.579 97.3408C173.188 102.883 174.646 109.774 173.749 116.015C172.847 122.294 169.602 127.687 165.097 130.373C164.736 130.588 163.922 130.895 162.504 131.227C161.14 131.546 159.383 131.853 157.271 132.143C153.048 132.722 147.523 133.217 141.109 133.621C128.289 134.429 112.033 134.866 95.7871 134.902C79.5399 134.939 63.3369 134.574 50.6221 133.785C44.2604 133.39 38.8055 132.891 34.668 132.288C32.5972 131.987 30.8926 131.665 29.5859 131.327C28.2141 130.973 27.4956 130.653 27.2217 130.459C22.8203 127.341 19.4201 122.857 18.3535 117.347C17.2923 111.863 18.4845 105.065 23.8232 97.1836C29.1859 89.267 33.6199 86.3402 37.5303 84.1611C41.5285 81.9331 45.5966 80.2287 49.2598 74.8223C50.2347 73.3833 51.0416 71.5256 51.792 69.5176C52.5457 67.5006 53.3046 65.1553 54.125 62.7334C55.7869 57.8273 57.7788 52.3746 60.8496 47.2861C63.9083 42.2179 68.0149 37.5516 73.8887 34.2051Z" fill="#D2D8BA" stroke="black" stroke-width="4"/>
<ellipse cx="80.7895" cy="83.0402" rx="4.74066" ry="4.67003" fill="#5B5B5B"/>
<ellipse cx="109.233" cy="84.5968" rx="4.74066" ry="4.67003" fill="#5B5B5B"/>
<path d="M122.665 75.2553C122.665 76.1145 118.597 76.0332 113.578 76.0332C108.56 76.0332 104.492 76.1145 104.492 75.2553C104.492 74.3962 108.56 72.9219 113.578 72.9219C118.597 72.9219 122.665 74.3962 122.665 75.2553Z" fill="#5B5B5B"/>
<path d="M92.1745 100.863C92.9687 102.024 94.6822 102.024 95.4764 100.863L98.8707 95.8986C99.7784 94.5712 98.8278 92.7698 97.2198 92.7698H90.4311C88.8231 92.7698 87.8725 94.5712 88.7802 95.8986L92.1745 100.863Z" fill="#C77C7C"/>
</svg>
