<svg width="160" height="110" viewBox="0 0 160 110" fill="none" xmlns="http://www.w3.org/2000/svg">
<path d="M58.6318 8.50879C64.2273 5.32086 71.7187 3.2619 82.002 3.52246C92.2835 3.78301 99.5584 6.21774 104.888 9.67676C110.225 13.1412 113.861 17.7948 116.604 22.8906C119.379 28.0439 121.168 33.4885 122.938 38.6104C123.805 41.1211 124.684 43.5962 125.668 45.79C126.646 47.9711 127.817 50.0835 129.359 51.7793C134.386 57.3068 137.71 59.3935 140.862 61.5264C143.752 63.4818 146.665 65.5758 151.426 71.2998C155.734 76.4798 157.108 82.9328 156.265 88.8018C155.412 94.739 152.362 99.6805 148.329 102.085C148.18 102.174 147.557 102.439 146.161 102.766C144.86 103.07 143.155 103.37 141.066 103.656C136.896 104.228 131.412 104.721 125.016 105.124C112.234 105.929 96.0094 106.366 79.7832 106.402C63.5556 106.439 47.3871 106.075 34.7148 105.288C28.3712 104.894 22.9626 104.398 18.8838 103.804C16.8409 103.506 15.1949 103.194 13.9609 102.875C13.3452 102.716 12.8747 102.566 12.5322 102.434C12.1685 102.293 12.0581 102.214 12.0889 102.235C7.93628 99.2937 4.80529 95.1207 3.82617 90.0625C2.85626 85.0513 3.89865 78.6518 9.06543 71.0244C14.2734 63.3364 18.5156 60.5582 22.2598 58.4717C26.158 56.2993 30.597 54.4266 34.502 48.6631C35.5816 47.0695 36.4386 45.0732 37.1973 43.043C37.9619 40.9969 38.7356 38.607 39.5459 36.2148C41.2034 31.3219 43.1525 26.0006 46.1338 21.0605C49.0936 16.156 53.0312 11.6997 58.6318 8.50879Z" fill="#D2D8BA" stroke="black" stroke-width="7"/>
<ellipse cx="64.7895" cy="56.0411" rx="4.74066" ry="4.67003" fill="#5B5B5B"/>
<ellipse cx="93.2328" cy="57.5968" rx="4.74066" ry="4.67003" fill="#5B5B5B"/>
<path d="M106.665 48.2553C106.665 49.1145 102.597 49.0332 97.5785 49.0332C92.5603 49.0332 88.4922 49.1145 88.4922 48.2553C88.4922 47.3962 92.5603 45.9219 97.5785 45.9219C102.597 45.9219 106.665 47.3962 106.665 48.2553Z" fill="#5B5B5B"/>
<path d="M76.1745 73.8628C76.9687 75.0243 78.6822 75.0243 79.4764 73.8628L82.8707 68.8986C83.7784 67.5712 82.8278 65.7698 81.2198 65.7698H74.4311C72.8231 65.7698 71.8725 67.5712 72.7802 68.8986L76.1745 73.8628Z" fill="#C77C7C"/>
</svg>
