<svg width="183" height="144" viewBox="0 0 183 144" fill="none" xmlns="http://www.w3.org/2000/svg">
<path d="M90.8438 3.50391C121.818 3.80853 148.244 21.8437 164.051 44.7627C179.976 67.8525 184.42 94.7297 173.439 112.633C168.059 121.404 157.113 128.42 142.597 133.24C128.18 138.028 110.747 140.476 93.1367 140.5C75.5284 140.524 57.9199 138.122 43.1562 133.34C28.3061 128.53 16.793 121.463 10.7412 112.504C-1.48955 94.3962 2.35879 67.2661 17.9707 44.1113C33.4761 21.1146 59.9107 3.19986 90.8438 3.50391Z" fill="#F5F5F5" stroke="black" stroke-width="7"/>
<rect x="53" y="84.7324" width="25" height="4" rx="2" transform="rotate(-11.4009 53 84.7324)" fill="#5B5B5B"/>
<rect width="25" height="4" rx="2" transform="matrix(-0.980268 -0.197672 -0.197672 0.980268 127.021 84.7324)" fill="#5B5B5B"/>
<path d="M90.9234 95.4068C91.2691 95.1629 91.7309 95.1629 92.0766 95.4068L100.616 101.433C101.414 101.996 101.016 103.25 100.04 103.25H82.9602C81.9844 103.25 81.5864 101.996 82.3837 101.433L90.9234 95.4068Z" fill="#C77C7C"/>
</svg>
