<svg width="183" height="182" viewBox="0 0 183 182" fill="none" xmlns="http://www.w3.org/2000/svg">
<circle cx="54.5" cy="162.5" r="4.5" fill="#D9D9D9" stroke="black" stroke-width="4"/>
<circle cx="81.5" cy="175.5" r="4.5" fill="#D9D9D9" stroke="black" stroke-width="4"/>
<circle cx="102.5" cy="175.5" r="4.5" fill="#D9D9D9" stroke="black" stroke-width="4"/>
<circle cx="133.5" cy="162.5" r="4.5" fill="#D9D9D9" stroke="black" stroke-width="4"/>
<rect x="70" y="137" width="51" height="36" fill="white" stroke="black" stroke-width="4"/>
<path d="M46.0557 138.87C52.4387 137.014 61.7793 136.811 69.7129 137.116C73.641 137.267 77.157 137.539 79.6904 137.773C80.4178 137.841 81.0635 137.906 81.6143 137.963C81.6094 137.987 81.6045 138.012 81.5996 138.037C81.3362 139.376 80.9846 141.183 80.6328 143.053C80.2815 144.92 79.9283 146.859 79.6621 148.46C79.4111 149.969 79.1963 151.4 79.1963 152.094C79.1963 152.752 79.3997 154.412 79.6523 156.294C79.9169 158.265 80.2693 160.703 80.6201 163.072C80.9712 165.443 81.3218 167.752 81.585 169.468C81.6064 169.608 81.6272 169.744 81.6475 169.876C73.7484 169.493 68.5593 169.519 60.4209 169.929C59.7099 168.081 59.3756 166.645 59.3594 165.241C59.3397 163.535 59.7838 161.674 60.9404 158.992L61.7393 157.141L59.8809 156.357C59.5589 156.222 59.2226 156.158 59.0068 156.124C58.754 156.084 58.4727 156.054 58.1836 156.031C57.6031 155.985 56.8902 155.957 56.1143 155.942C54.5569 155.913 52.6378 155.933 50.7861 155.972C48.9299 156.01 47.1212 156.067 45.7783 156.115C45.3845 156.129 45.0305 156.143 44.7266 156.154C44.4733 155.725 44.1541 155.166 43.8125 154.508C42.975 152.894 42.0211 150.757 41.4658 148.552C40.9021 146.313 40.8093 144.242 41.4121 142.612C41.9655 141.116 43.2125 139.697 46.0557 138.87Z" fill="#272727" stroke="black" stroke-width="4"/>
<path d="M140.944 138.87C134.561 137.014 125.221 136.811 117.287 137.116C113.359 137.267 109.843 137.539 107.31 137.773C106.582 137.841 105.936 137.906 105.386 137.963C105.391 137.987 105.396 138.012 105.4 138.037C105.664 139.376 106.015 141.183 106.367 143.053C106.719 144.92 107.072 146.859 107.338 148.46C107.589 149.969 107.804 151.4 107.804 152.094C107.804 152.752 107.6 154.412 107.348 156.294C107.083 158.265 106.731 160.703 106.38 163.072C106.029 165.443 105.678 167.752 105.415 169.468C105.394 169.608 105.373 169.744 105.353 169.876C113.252 169.493 118.441 169.519 126.579 169.929C127.29 168.081 127.624 166.645 127.641 165.241C127.66 163.535 127.216 161.674 126.06 158.992L125.261 157.141L127.119 156.357C127.441 156.222 127.777 156.158 127.993 156.124C128.246 156.084 128.527 156.054 128.816 156.031C129.397 155.985 130.11 155.957 130.886 155.942C132.443 155.913 134.362 155.933 136.214 155.972C138.07 156.01 139.879 156.067 141.222 156.115C141.615 156.129 141.97 156.143 142.273 156.154C142.527 155.725 142.846 155.166 143.188 154.508C144.025 152.894 144.979 150.757 145.534 148.552C146.098 146.313 146.191 144.242 145.588 142.612C145.035 141.116 143.787 139.697 140.944 138.87Z" fill="#272727" stroke="black" stroke-width="4"/>
<path d="M90.8594 2.00391C122.426 2.31452 149.267 20.6847 165.286 43.9111C181.372 67.2353 186.144 94.7896 174.718 113.418C169.068 122.629 157.725 129.797 143.069 134.664C128.47 139.512 110.873 141.976 93.1387 142C75.4055 142.024 57.6362 139.606 42.6943 134.767C27.703 129.911 15.8202 122.704 9.49805 113.344C-3.21881 94.5165 0.944401 66.6823 16.7275 43.2734C32.4499 19.9548 59.3164 1.69368 90.8594 2.00391Z" fill="#F5F5F5" stroke="black" stroke-width="4"/>
<rect x="53" y="84.7324" width="25" height="4" rx="2" transform="rotate(-11.4009 53 84.7324)" fill="#5B5B5B"/>
<rect width="25" height="4" rx="2" transform="matrix(-0.980268 -0.197672 -0.197672 0.980268 127.021 84.7324)" fill="#5B5B5B"/>
<path d="M90.9234 95.4068C91.2691 95.1629 91.7309 95.1629 92.0766 95.4068L100.616 101.433C101.414 101.996 101.016 103.25 100.04 103.25H82.9602C81.9844 103.25 81.5864 101.996 82.3837 101.433L90.9234 95.4068Z" fill="#C77C7C"/>
</svg>
