<svg width="267" height="231" viewBox="0 0 267 231" fill="none" xmlns="http://www.w3.org/2000/svg">
<path d="M86.918 193.894C85.4153 193.296 84.6982 191.858 84.8585 189.296C85.0171 186.761 86.046 183.769 87.1909 181.343C88.4042 178.771 89.1012 178.276 89.5032 178.148C89.718 178.08 90.1024 178.033 90.8465 178.184C91.6017 178.337 92.5642 178.658 93.8634 179.174C95.1635 179.691 96.0693 180.113 96.6967 180.508C97.3134 180.897 97.5207 181.176 97.603 181.351C97.7656 181.696 97.8346 182.491 96.6099 185.087C95.4597 187.524 93.8065 190.271 91.9213 192.12C90.0177 193.987 88.4112 194.487 86.918 193.894Z" fill="#C4B7CF" stroke="black" stroke-width="4"/>
<path d="M179.28 193.894C180.783 193.296 181.5 191.858 181.34 189.296C181.181 186.761 180.152 183.769 179.007 181.343C177.794 178.771 177.097 178.276 176.695 178.148C176.48 178.08 176.096 178.033 175.352 178.184C174.597 178.337 173.634 178.658 172.335 179.174C171.035 179.691 170.129 180.113 169.502 180.508C168.885 180.897 168.678 181.176 168.595 181.351C168.433 181.696 168.364 182.491 169.588 185.087C170.739 187.524 172.392 190.271 174.277 192.12C176.181 193.987 177.787 194.487 179.28 193.894Z" fill="#C4B7CF" stroke="black" stroke-width="4"/>
<path d="M119.267 227.872C117.587 227.964 116.242 226.949 115.14 224.624C114.041 222.307 113.49 219.221 113.32 216.587C113.14 213.798 113.518 213.09 113.806 212.817C113.968 212.664 114.297 212.459 115.045 212.283C115.801 212.106 116.823 211.994 118.237 211.917C119.653 211.84 120.673 211.841 121.434 211.935C122.186 212.028 122.518 212.194 122.681 212.319C122.986 212.552 123.435 213.211 123.617 216.027C123.787 218.674 123.661 221.799 122.891 224.218C122.119 226.642 120.938 227.781 119.267 227.872Z" fill="#C4B7CF" stroke="black" stroke-width="4"/>
<path d="M147.175 228.613C148.855 228.704 150.2 227.689 151.303 225.364C152.402 223.047 152.952 219.961 153.122 217.328C153.302 214.538 152.924 213.83 152.636 213.558C152.474 213.404 152.145 213.199 151.398 213.024C150.642 212.846 149.619 212.734 148.205 212.657C146.79 212.58 145.769 212.581 145.008 212.675C144.257 212.768 143.925 212.934 143.761 213.059C143.456 213.292 143.008 213.951 142.826 216.768C142.655 219.414 142.781 222.539 143.552 224.958C144.323 227.383 145.505 228.522 147.175 228.613Z" fill="#C4B7CF" stroke="black" stroke-width="4"/>
<rect x="98.3291" y="163.064" width="69.2941" height="50.0413" fill="white" stroke="black" stroke-width="4"/>
<path d="M102.12 154.708C108.655 154.669 116.281 158.071 122.496 161.725C125.554 163.523 128.18 165.326 130.041 166.68C130.639 167.116 131.157 167.505 131.584 167.83C131.267 168.255 130.89 168.758 130.468 169.324C129.127 171.121 127.321 173.548 125.463 176.062C121.799 181.02 117.789 186.51 116.898 188.018C116.02 189.502 112.351 196.993 108.971 203.958C107.265 207.475 105.609 210.904 104.381 213.454C104.004 214.237 103.667 214.937 103.381 215.531C97.3596 211.848 93.0947 209.762 86.3132 207.1C87.3797 203.826 88.4471 201.26 89.8611 198.832C91.5006 196.017 93.6543 193.304 96.9481 189.863L97.8622 188.908L97.3379 187.768C97.1465 187.352 96.8501 187.05 96.6637 186.878C96.4498 186.679 96.2071 186.496 95.9688 186.33C95.4906 185.999 94.8943 185.649 94.2571 185.304C92.9748 184.61 91.3606 183.844 89.8039 183.141C88.2397 182.433 86.7007 181.773 85.555 181.292C85.3904 181.223 85.2332 181.158 85.0856 181.096C85.2481 180.33 85.4806 179.293 85.7923 178.068C86.4815 175.362 87.5416 171.775 89.0272 168.205C90.5223 164.613 92.3988 161.16 94.6683 158.636C96.927 156.123 99.3841 154.724 102.12 154.708Z" fill="#272727" stroke="black" stroke-width="4"/>
<path d="M162.971 154.841C156.445 155.062 148.99 158.761 142.954 162.658C139.984 164.575 137.446 166.48 135.651 167.907C135.074 168.365 134.577 168.775 134.166 169.117C134.504 169.53 134.905 170.02 135.356 170.572C136.781 172.314 138.7 174.666 140.675 177.104C144.57 181.912 148.833 187.238 149.794 188.708C150.74 190.155 154.759 197.492 158.464 204.317C160.335 207.762 162.15 211.122 163.497 213.621C163.912 214.391 164.284 215.08 164.598 215.664C170.436 211.748 174.598 209.495 181.241 206.568C180.021 203.338 178.834 200.814 177.305 198.443C175.533 195.694 173.252 193.068 169.799 189.761L168.848 188.851L169.317 187.695C169.489 187.271 169.771 186.957 169.95 186.776C170.155 186.569 170.39 186.375 170.62 186.2C171.083 185.849 171.663 185.476 172.283 185.106C173.532 184.362 175.109 183.532 176.632 182.767C178.161 181.998 179.669 181.277 180.791 180.751C180.949 180.676 181.1 180.606 181.242 180.54C181.043 179.781 180.761 178.753 180.392 177.542C179.576 174.865 178.348 171.323 176.695 167.815C175.031 164.284 172.993 160.907 170.604 158.472C168.226 156.048 165.702 154.749 162.971 154.841Z" fill="#272727" stroke="black" stroke-width="4"/>
<path d="M110.235 71.0625C117.963 49.4319 148.946 49.8916 156.651 71.7754C160.505 82.7208 170.901 90.2108 182.533 90.2109H184.192C206.885 90.2112 215.743 119.683 196.81 132.193L195.056 133.352C187.299 138.477 183.268 147.674 184.755 156.852C186.912 170.167 175.309 181.643 162.018 179.338L139.644 175.458C135.596 174.756 131.463 174.685 127.394 175.247L104.492 178.408C91.7032 180.174 80.7782 169.212 82.5879 156.429C83.8565 147.468 79.853 138.578 72.3027 133.589L70.4365 132.355C51.4301 119.797 60.3217 90.2109 83.1025 90.2109H84.1621C95.6955 90.2109 105.984 82.9615 109.864 72.1006L110.235 71.0625Z" fill="#C4B7CF" stroke="black" stroke-width="4"/>
<ellipse cx="106.276" cy="131.925" rx="4.71176" ry="4.76835" fill="#5B5B5B"/>
<ellipse cx="160.2" cy="131.925" rx="5.23529" ry="4.76835" fill="#5B5B5B"/>
<path d="M121.459 155.766C121.459 155.766 128.09 159.938 132.977 159.938C137.863 159.938 144.494 155.766 144.494 155.766V158.547C144.494 158.547 137.863 163.183 132.977 163.183C128.09 163.183 121.459 158.547 121.459 158.547V155.766Z" fill="#C77C7C"/>
</svg>
