<svg width="267" height="186" viewBox="0 0 267 186" fill="none" xmlns="http://www.w3.org/2000/svg">
<path d="M111.656 71.3574C118.888 51.1706 147.959 51.4712 155.236 72.085C159.298 83.5912 170.234 91.4765 182.487 91.4766H184.253C205.399 91.4766 213.638 118.951 195.981 130.587L194.227 131.743C185.981 137.177 181.694 146.947 183.277 156.694C185.268 168.946 174.595 179.51 162.364 177.395L139.885 173.506C135.694 172.781 131.416 172.708 127.203 173.288L104.201 176.455C92.4432 178.074 82.4022 167.992 84.0703 156.241C85.422 146.719 81.1631 137.271 73.1328 131.979L71.2646 130.749C53.5347 119.065 61.8073 91.4769 83.041 91.4766H84.208C96.3485 91.4764 107.181 83.8512 111.275 72.4219L111.656 71.3574Z" fill="#C4B7CF" stroke="black" stroke-width="7"/>
<ellipse cx="106.5" cy="132" rx="4.5" ry="5" fill="#5B5B5B"/>
<circle cx="160" cy="132" r="5" fill="#5B5B5B"/>
<path d="M121 156C121 156 127.621 159.938 132.5 159.938C137.379 159.938 144 156 144 156V158.625C144 158.625 137.379 163 132.5 163C127.621 163 121 158.625 121 158.625V156Z" fill="#C77C7C"/>
</svg>
